<svg width="12" height="12" viewBox="0 0 12 12" fill="none" xmlns="http://www.w3.org/2000/svg">
<path d="M9.35 7.85C9.25 7.95 9.15 8 9 8C8.85 8 8.75 7.95 8.65 7.85L6 5.2L3.35 7.85C3.15 8.05 2.85 8.05 2.65 7.85C2.45 7.65 2.45 7.35 2.65 7.15L5.65 4.15C5.85 3.95 6.15 3.95 6.35 4.15L9.35 7.15C9.55 7.35 9.55 7.65 9.35 7.85Z" fill="white"/>
<mask id="mask0_1_356" style="mask-type:luminance" maskUnits="userSpaceOnUse" x="2" y="4" width="8" height="4">
<path d="M9.35 7.85C9.25 7.95 9.15 8 9 8C8.85 8 8.75 7.95 8.65 7.85L6 5.2L3.35 7.85C3.15 8.05 2.85 8.05 2.65 7.85C2.45 7.65 2.45 7.35 2.65 7.15L5.65 4.15C5.85 3.95 6.15 3.95 6.35 4.15L9.35 7.15C9.55 7.35 9.55 7.65 9.35 7.85Z" fill="white"/>
</mask>
<g mask="url(#mask0_1_356)">
<rect width="12" height="12" fill="#363F5E"/>
</g>
</svg>
