<svg width="12" height="12" viewBox="0 0 12 12" fill="none" xmlns="http://www.w3.org/2000/svg">
<path d="M9.35 4.85L6.35 7.85C6.25 7.95 6.15 8 6 8C5.85 8 5.75 7.95 5.65 7.85L2.65 4.85C2.45 4.65 2.45 4.35 2.65 4.15C2.85 3.95 3.15 3.95 3.35 4.15L6 6.8L8.65 4.15C8.85 3.95 9.15 3.95 9.35 4.15C9.55 4.35 9.55 4.65 9.35 4.85Z" fill="black"/>
<mask id="mask0_1_355" style="mask-type:luminance" maskUnits="userSpaceOnUse" x="2" y="4" width="8" height="4">
<path d="M9.35 4.85L6.35 7.85C6.25 7.95 6.15 8 6 8C5.85 8 5.75 7.95 5.65 7.85L2.65 4.85C2.45 4.65 2.45 4.35 2.65 4.15C2.85 3.95 3.15 3.95 3.35 4.15L6 6.8L8.65 4.15C8.85 3.95 9.15 3.95 9.35 4.15C9.55 4.35 9.55 4.65 9.35 4.85Z" fill="white"/>
</mask>
<g mask="url(#mask0_1_355)">
<rect width="12" height="12" fill="#8A8FA0"/>
</g>
</svg>
