<svg width="16" height="16" viewBox="0 0 16 16" fill="none" xmlns="http://www.w3.org/2000/svg">
<path fill-rule="evenodd" clip-rule="evenodd" d="M12.6666 2.11437C12.5066 2.11437 12.3481 2.1459 12.2002 2.20716C12.0523 2.26842 11.9179 2.3582 11.8047 2.47139L2.9299 11.3462L2.28345 13.7165L4.65376 13.0701L13.5286 4.19525C13.6418 4.08206 13.7315 3.94768 13.7928 3.79979C13.8541 3.65191 13.8856 3.4934 13.8856 3.33332C13.8856 3.17324 13.8541 3.01474 13.7928 2.86685C13.7315 2.71896 13.6418 2.58458 13.5286 2.47139C13.4154 2.3582 13.281 2.26842 13.1331 2.20716C12.9852 2.1459 12.8267 2.11437 12.6666 2.11437ZM11.6899 0.975317C11.9996 0.847053 12.3315 0.781036 12.6666 0.781036C13.0018 0.781036 13.3337 0.847053 13.6434 0.975317C13.953 1.10358 14.2344 1.29158 14.4714 1.52858C14.7084 1.76558 14.8964 2.04695 15.0246 2.3566C15.1529 2.66626 15.2189 2.99815 15.2189 3.33332C15.2189 3.66849 15.1529 4.00038 15.0246 4.31004C14.8964 4.6197 14.7084 4.90106 14.4714 5.13806L5.47138 14.1381C5.38934 14.2201 5.28732 14.2793 5.17539 14.3098L1.50872 15.3098C1.27791 15.3728 1.03107 15.3072 0.861904 15.1381C0.692737 14.9689 0.627185 14.7221 0.690132 14.4912L1.69013 10.8246C1.72066 10.7126 1.77987 10.6106 1.8619 10.5286L10.8619 1.52858C11.0989 1.29158 11.3803 1.10358 11.6899 0.975317Z" fill="#6E7890"/>
</svg>
