<svg width="1408" height="448" viewBox="0 0 1408 448" fill="none" xmlns="http://www.w3.org/2000/svg">
<rect width="22" height="11.957" transform="translate(1234)" fill="white"/>
<path opacity="0.8" d="M4.068 337.836C3.152 337.836 2.392 337.64 1.788 337.248C1.188 336.852 0.83 336.268 0.714 335.496L1.878 335.424C2.006 335.912 2.262 336.278 2.646 336.522C3.03 336.766 3.502 336.888 4.062 336.888C4.398 336.888 4.712 336.83 5.004 336.714C5.3 336.598 5.538 336.436 5.718 336.228C5.902 336.02 5.994 335.774 5.994 335.49C5.994 335.11 5.88 334.806 5.652 334.578C5.428 334.35 5.07 334.17 4.578 334.038L3.084 333.648C2.44 333.484 1.93 333.226 1.554 332.874C1.178 332.522 0.988 332.05 0.984 331.458C0.98 330.958 1.11 330.518 1.374 330.138C1.642 329.758 2.01 329.462 2.478 329.25C2.95 329.038 3.494 328.932 4.11 328.932C4.702 328.932 5.212 329.046 5.64 329.274C6.072 329.498 6.406 329.796 6.642 330.168C6.882 330.54 7.01 330.946 7.026 331.386L5.898 331.446C5.81 330.93 5.62 330.54 5.328 330.276C5.04 330.008 4.634 329.874 4.11 329.874C3.862 329.874 3.622 329.906 3.39 329.97C3.162 330.03 2.956 330.122 2.772 330.246C2.592 330.37 2.448 330.524 2.34 330.708C2.232 330.892 2.178 331.106 2.178 331.35C2.178 331.662 2.288 331.91 2.508 332.094C2.728 332.274 3.124 332.452 3.696 332.628L5.136 333.036C5.872 333.24 6.396 333.558 6.708 333.99C7.024 334.418 7.182 334.914 7.182 335.478C7.182 335.938 7.052 336.346 6.792 336.702C6.532 337.054 6.166 337.332 5.694 337.536C5.226 337.736 4.684 337.836 4.068 337.836ZM3.6 327.744H4.626V329.292H3.6V327.744ZM3.528 337.422H4.554V338.97H3.528V337.422ZM11.5764 328.92C12.5164 328.92 13.2644 329.298 13.8204 330.054C14.3804 330.806 14.6604 331.92 14.6604 333.396C14.6604 334.864 14.3824 335.974 13.8264 336.726C13.2704 337.474 12.5164 337.848 11.5644 337.848C10.6164 337.848 9.86444 337.476 9.30844 336.732C8.75244 335.984 8.47444 334.878 8.47444 333.414C8.47444 332.426 8.60244 331.598 8.85844 330.93C9.11444 330.262 9.47444 329.76 9.93844 329.424C10.4024 329.088 10.9484 328.92 11.5764 328.92ZM11.5764 336.888C12.1964 336.888 12.6644 336.616 12.9804 336.072C13.3004 335.524 13.4604 334.634 13.4604 333.402C13.4604 332.146 13.2984 331.242 12.9744 330.69C12.6544 330.134 12.1864 329.856 11.5704 329.856C10.9584 329.856 10.4864 330.136 10.1544 330.696C9.82644 331.252 9.66244 332.154 9.66244 333.402C9.66244 334.63 9.82644 335.518 10.1544 336.066C10.4824 336.614 10.9564 336.888 11.5764 336.888Z" fill="#1F2632"/>
<path opacity="0.8" d="M96.744 369.716V369.038V368.684C96.744 368.24 96.826 367.856 96.99 367.532C97.158 367.208 97.378 366.926 97.65 366.686C97.926 366.442 98.226 366.224 98.55 366.032C98.878 365.84 99.204 365.656 99.528 365.48C99.856 365.3 100.156 365.114 100.428 364.922C100.7 364.726 100.918 364.506 101.082 364.262C101.25 364.014 101.334 363.722 101.334 363.386C101.334 362.946 101.178 362.588 100.866 362.312C100.558 362.036 100.14 361.898 99.612 361.898C99.044 361.898 98.588 362.058 98.244 362.378C97.9 362.698 97.706 363.124 97.662 363.656H96.558C96.57 363.156 96.694 362.7 96.93 362.288C97.166 361.872 97.512 361.54 97.968 361.292C98.424 361.044 98.986 360.92 99.654 360.92C100.234 360.92 100.738 361.024 101.166 361.232C101.594 361.436 101.924 361.724 102.156 362.096C102.392 362.464 102.51 362.894 102.51 363.386C102.51 363.834 102.428 364.218 102.264 364.538C102.1 364.858 101.882 365.136 101.61 365.372C101.342 365.604 101.048 365.812 100.728 365.996C100.408 366.18 100.086 366.358 99.762 366.53C99.438 366.698 99.142 366.876 98.874 367.064C98.606 367.248 98.39 367.46 98.226 367.7C98.062 367.94 97.98 368.226 97.98 368.558V368.732H102.558V369.716H96.744ZM106.826 360.92C107.766 360.92 108.514 361.298 109.07 362.054C109.63 362.806 109.91 363.92 109.91 365.396C109.91 366.864 109.632 367.974 109.076 368.726C108.52 369.474 107.766 369.848 106.814 369.848C105.866 369.848 105.114 369.476 104.558 368.732C104.002 367.984 103.724 366.878 103.724 365.414C103.724 364.426 103.852 363.598 104.108 362.93C104.364 362.262 104.724 361.76 105.188 361.424C105.652 361.088 106.198 360.92 106.826 360.92ZM106.826 368.888C107.446 368.888 107.914 368.616 108.23 368.072C108.55 367.524 108.71 366.634 108.71 365.402C108.71 364.146 108.548 363.242 108.224 362.69C107.904 362.134 107.436 361.856 106.82 361.856C106.208 361.856 105.736 362.136 105.404 362.696C105.076 363.252 104.912 364.154 104.912 365.402C104.912 366.63 105.076 367.518 105.404 368.066C105.732 368.614 106.206 368.888 106.826 368.888ZM111.24 369.716V369.038V368.684C111.24 368.24 111.322 367.856 111.486 367.532C111.654 367.208 111.874 366.926 112.146 366.686C112.422 366.442 112.722 366.224 113.046 366.032C113.374 365.84 113.7 365.656 114.024 365.48C114.352 365.3 114.652 365.114 114.924 364.922C115.196 364.726 115.414 364.506 115.578 364.262C115.746 364.014 115.83 363.722 115.83 363.386C115.83 362.946 115.674 362.588 115.362 362.312C115.054 362.036 114.636 361.898 114.108 361.898C113.54 361.898 113.084 362.058 112.74 362.378C112.396 362.698 112.202 363.124 112.158 363.656H111.054C111.066 363.156 111.19 362.7 111.426 362.288C111.662 361.872 112.008 361.54 112.464 361.292C112.92 361.044 113.482 360.92 114.15 360.92C114.73 360.92 115.234 361.024 115.662 361.232C116.09 361.436 116.42 361.724 116.652 362.096C116.888 362.464 117.006 362.894 117.006 363.386C117.006 363.834 116.924 364.218 116.76 364.538C116.596 364.858 116.378 365.136 116.106 365.372C115.838 365.604 115.544 365.812 115.224 365.996C114.904 366.18 114.582 366.358 114.258 366.53C113.934 366.698 113.638 366.876 113.37 367.064C113.102 367.248 112.886 367.46 112.722 367.7C112.558 367.94 112.476 368.226 112.476 368.558V368.732H117.054V369.716H111.24ZM119.877 369.716V362.81H118.203V362.084C118.723 362.084 119.127 362.046 119.415 361.97C119.703 361.894 119.907 361.778 120.027 361.622C120.151 361.466 120.219 361.272 120.231 361.04H121.023V369.716H119.877Z" fill="#1F2632"/>
<path opacity="0.8" d="M461.744 369.716V369.038V368.684C461.744 368.24 461.826 367.856 461.99 367.532C462.158 367.208 462.378 366.926 462.65 366.686C462.926 366.442 463.226 366.224 463.55 366.032C463.878 365.84 464.204 365.656 464.528 365.48C464.856 365.3 465.156 365.114 465.428 364.922C465.7 364.726 465.918 364.506 466.082 364.262C466.25 364.014 466.334 363.722 466.334 363.386C466.334 362.946 466.178 362.588 465.866 362.312C465.558 362.036 465.14 361.898 464.612 361.898C464.044 361.898 463.588 362.058 463.244 362.378C462.9 362.698 462.706 363.124 462.662 363.656H461.558C461.57 363.156 461.694 362.7 461.93 362.288C462.166 361.872 462.512 361.54 462.968 361.292C463.424 361.044 463.986 360.92 464.654 360.92C465.234 360.92 465.738 361.024 466.166 361.232C466.594 361.436 466.924 361.724 467.156 362.096C467.392 362.464 467.51 362.894 467.51 363.386C467.51 363.834 467.428 364.218 467.264 364.538C467.1 364.858 466.882 365.136 466.61 365.372C466.342 365.604 466.048 365.812 465.728 365.996C465.408 366.18 465.086 366.358 464.762 366.53C464.438 366.698 464.142 366.876 463.874 367.064C463.606 367.248 463.39 367.46 463.226 367.7C463.062 367.94 462.98 368.226 462.98 368.558V368.732H467.558V369.716H461.744ZM471.826 360.92C472.766 360.92 473.514 361.298 474.07 362.054C474.63 362.806 474.91 363.92 474.91 365.396C474.91 366.864 474.632 367.974 474.076 368.726C473.52 369.474 472.766 369.848 471.814 369.848C470.866 369.848 470.114 369.476 469.558 368.732C469.002 367.984 468.724 366.878 468.724 365.414C468.724 364.426 468.852 363.598 469.108 362.93C469.364 362.262 469.724 361.76 470.188 361.424C470.652 361.088 471.198 360.92 471.826 360.92ZM471.826 368.888C472.446 368.888 472.914 368.616 473.23 368.072C473.55 367.524 473.71 366.634 473.71 365.402C473.71 364.146 473.548 363.242 473.224 362.69C472.904 362.134 472.436 361.856 471.82 361.856C471.208 361.856 470.736 362.136 470.404 362.696C470.076 363.252 469.912 364.154 469.912 365.402C469.912 366.63 470.076 367.518 470.404 368.066C470.732 368.614 471.206 368.888 471.826 368.888ZM476.24 369.716V369.038V368.684C476.24 368.24 476.322 367.856 476.486 367.532C476.654 367.208 476.874 366.926 477.146 366.686C477.422 366.442 477.722 366.224 478.046 366.032C478.374 365.84 478.7 365.656 479.024 365.48C479.352 365.3 479.652 365.114 479.924 364.922C480.196 364.726 480.414 364.506 480.578 364.262C480.746 364.014 480.83 363.722 480.83 363.386C480.83 362.946 480.674 362.588 480.362 362.312C480.054 362.036 479.636 361.898 479.108 361.898C478.54 361.898 478.084 362.058 477.74 362.378C477.396 362.698 477.202 363.124 477.158 363.656H476.054C476.066 363.156 476.19 362.7 476.426 362.288C476.662 361.872 477.008 361.54 477.464 361.292C477.92 361.044 478.482 360.92 479.15 360.92C479.73 360.92 480.234 361.024 480.662 361.232C481.09 361.436 481.42 361.724 481.652 362.096C481.888 362.464 482.006 362.894 482.006 363.386C482.006 363.834 481.924 364.218 481.76 364.538C481.596 364.858 481.378 365.136 481.106 365.372C480.838 365.604 480.544 365.812 480.224 365.996C479.904 366.18 479.582 366.358 479.258 366.53C478.934 366.698 478.638 366.876 478.37 367.064C478.102 367.248 477.886 367.46 477.722 367.7C477.558 367.94 477.476 368.226 477.476 368.558V368.732H482.054V369.716H476.24ZM483.389 369.716V369.038V368.684C483.389 368.24 483.471 367.856 483.635 367.532C483.803 367.208 484.023 366.926 484.295 366.686C484.571 366.442 484.871 366.224 485.195 366.032C485.523 365.84 485.849 365.656 486.173 365.48C486.501 365.3 486.801 365.114 487.073 364.922C487.345 364.726 487.563 364.506 487.727 364.262C487.895 364.014 487.979 363.722 487.979 363.386C487.979 362.946 487.823 362.588 487.511 362.312C487.203 362.036 486.785 361.898 486.257 361.898C485.689 361.898 485.233 362.058 484.889 362.378C484.545 362.698 484.351 363.124 484.307 363.656H483.203C483.215 363.156 483.339 362.7 483.575 362.288C483.811 361.872 484.157 361.54 484.613 361.292C485.069 361.044 485.631 360.92 486.299 360.92C486.879 360.92 487.383 361.024 487.811 361.232C488.239 361.436 488.569 361.724 488.801 362.096C489.037 362.464 489.155 362.894 489.155 363.386C489.155 363.834 489.073 364.218 488.909 364.538C488.745 364.858 488.527 365.136 488.255 365.372C487.987 365.604 487.693 365.812 487.373 365.996C487.053 366.18 486.731 366.358 486.407 366.53C486.083 366.698 485.787 366.876 485.519 367.064C485.251 367.248 485.035 367.46 484.871 367.7C484.707 367.94 484.625 368.226 484.625 368.558V368.732H489.203V369.716H483.389Z" fill="#1F2632"/>
<path opacity="0.8" d="M745.744 369.716V369.038V368.684C745.744 368.24 745.826 367.856 745.99 367.532C746.158 367.208 746.378 366.926 746.65 366.686C746.926 366.442 747.226 366.224 747.55 366.032C747.878 365.84 748.204 365.656 748.528 365.48C748.856 365.3 749.156 365.114 749.428 364.922C749.7 364.726 749.918 364.506 750.082 364.262C750.25 364.014 750.334 363.722 750.334 363.386C750.334 362.946 750.178 362.588 749.866 362.312C749.558 362.036 749.14 361.898 748.612 361.898C748.044 361.898 747.588 362.058 747.244 362.378C746.9 362.698 746.706 363.124 746.662 363.656H745.558C745.57 363.156 745.694 362.7 745.93 362.288C746.166 361.872 746.512 361.54 746.968 361.292C747.424 361.044 747.986 360.92 748.654 360.92C749.234 360.92 749.738 361.024 750.166 361.232C750.594 361.436 750.924 361.724 751.156 362.096C751.392 362.464 751.51 362.894 751.51 363.386C751.51 363.834 751.428 364.218 751.264 364.538C751.1 364.858 750.882 365.136 750.61 365.372C750.342 365.604 750.048 365.812 749.728 365.996C749.408 366.18 749.086 366.358 748.762 366.53C748.438 366.698 748.142 366.876 747.874 367.064C747.606 367.248 747.39 367.46 747.226 367.7C747.062 367.94 746.98 368.226 746.98 368.558V368.732H751.558V369.716H745.744ZM755.826 360.92C756.766 360.92 757.514 361.298 758.07 362.054C758.63 362.806 758.91 363.92 758.91 365.396C758.91 366.864 758.632 367.974 758.076 368.726C757.52 369.474 756.766 369.848 755.814 369.848C754.866 369.848 754.114 369.476 753.558 368.732C753.002 367.984 752.724 366.878 752.724 365.414C752.724 364.426 752.852 363.598 753.108 362.93C753.364 362.262 753.724 361.76 754.188 361.424C754.652 361.088 755.198 360.92 755.826 360.92ZM755.826 368.888C756.446 368.888 756.914 368.616 757.23 368.072C757.55 367.524 757.71 366.634 757.71 365.402C757.71 364.146 757.548 363.242 757.224 362.69C756.904 362.134 756.436 361.856 755.82 361.856C755.208 361.856 754.736 362.136 754.404 362.696C754.076 363.252 753.912 364.154 753.912 365.402C753.912 366.63 754.076 367.518 754.404 368.066C754.732 368.614 755.206 368.888 755.826 368.888ZM760.24 369.716V369.038V368.684C760.24 368.24 760.322 367.856 760.486 367.532C760.654 367.208 760.874 366.926 761.146 366.686C761.422 366.442 761.722 366.224 762.046 366.032C762.374 365.84 762.7 365.656 763.024 365.48C763.352 365.3 763.652 365.114 763.924 364.922C764.196 364.726 764.414 364.506 764.578 364.262C764.746 364.014 764.83 363.722 764.83 363.386C764.83 362.946 764.674 362.588 764.362 362.312C764.054 362.036 763.636 361.898 763.108 361.898C762.54 361.898 762.084 362.058 761.74 362.378C761.396 362.698 761.202 363.124 761.158 363.656H760.054C760.066 363.156 760.19 362.7 760.426 362.288C760.662 361.872 761.008 361.54 761.464 361.292C761.92 361.044 762.482 360.92 763.15 360.92C763.73 360.92 764.234 361.024 764.662 361.232C765.09 361.436 765.42 361.724 765.652 362.096C765.888 362.464 766.006 362.894 766.006 363.386C766.006 363.834 765.924 364.218 765.76 364.538C765.596 364.858 765.378 365.136 765.106 365.372C764.838 365.604 764.544 365.812 764.224 365.996C763.904 366.18 763.582 366.358 763.258 366.53C762.934 366.698 762.638 366.876 762.37 367.064C762.102 367.248 761.886 367.46 761.722 367.7C761.558 367.94 761.476 368.226 761.476 368.558V368.732H766.054V369.716H760.24ZM767.335 363.566C767.335 363.006 767.471 362.53 767.743 362.138C768.015 361.742 768.377 361.44 768.829 361.232C769.285 361.024 769.787 360.92 770.335 360.92C770.935 360.92 771.465 361.008 771.925 361.184C772.385 361.356 772.745 361.608 773.005 361.94C773.265 362.272 773.395 362.678 773.395 363.158C773.395 363.586 773.259 363.974 772.987 364.322C772.715 364.666 772.299 364.936 771.739 365.132C772.119 365.236 772.451 365.388 772.735 365.588C773.019 365.788 773.239 366.034 773.395 366.326C773.551 366.614 773.629 366.946 773.629 367.322C773.629 367.718 773.545 368.074 773.377 368.39C773.213 368.702 772.981 368.968 772.681 369.188C772.381 369.404 772.027 369.57 771.619 369.686C771.211 369.798 770.767 369.852 770.287 369.848C769.691 369.844 769.165 369.734 768.709 369.518C768.257 369.302 767.901 369 767.641 368.612C767.381 368.22 767.241 367.756 767.221 367.22H768.331C768.415 367.76 768.635 368.174 768.991 368.462C769.347 368.75 769.793 368.894 770.329 368.894C770.753 368.894 771.123 368.828 771.439 368.696C771.755 368.56 771.999 368.374 772.171 368.138C772.343 367.902 772.429 367.626 772.429 367.31C772.429 366.962 772.333 366.668 772.141 366.428C771.949 366.188 771.687 366.006 771.355 365.882C771.023 365.754 770.653 365.688 770.245 365.684L769.465 365.666V364.724L770.209 364.706C770.589 364.698 770.929 364.626 771.229 364.49C771.529 364.35 771.765 364.168 771.937 363.944C772.113 363.716 772.201 363.466 772.201 363.194C772.201 362.954 772.127 362.732 771.979 362.528C771.831 362.32 771.617 362.154 771.337 362.03C771.061 361.906 770.725 361.844 770.329 361.844C770.017 361.844 769.719 361.906 769.435 362.03C769.151 362.15 768.917 362.336 768.733 362.588C768.549 362.84 768.451 363.166 768.439 363.566H767.335Z" fill="#1F2632"/>
<path opacity="0.8" d="M1030.74 369.716V369.038V368.684C1030.74 368.24 1030.83 367.856 1030.99 367.532C1031.16 367.208 1031.38 366.926 1031.65 366.686C1031.93 366.442 1032.23 366.224 1032.55 366.032C1032.88 365.84 1033.2 365.656 1033.53 365.48C1033.86 365.3 1034.16 365.114 1034.43 364.922C1034.7 364.726 1034.92 364.506 1035.08 364.262C1035.25 364.014 1035.33 363.722 1035.33 363.386C1035.33 362.946 1035.18 362.588 1034.87 362.312C1034.56 362.036 1034.14 361.898 1033.61 361.898C1033.04 361.898 1032.59 362.058 1032.24 362.378C1031.9 362.698 1031.71 363.124 1031.66 363.656H1030.56C1030.57 363.156 1030.69 362.7 1030.93 362.288C1031.17 361.872 1031.51 361.54 1031.97 361.292C1032.42 361.044 1032.99 360.92 1033.65 360.92C1034.23 360.92 1034.74 361.024 1035.17 361.232C1035.59 361.436 1035.92 361.724 1036.16 362.096C1036.39 362.464 1036.51 362.894 1036.51 363.386C1036.51 363.834 1036.43 364.218 1036.26 364.538C1036.1 364.858 1035.88 365.136 1035.61 365.372C1035.34 365.604 1035.05 365.812 1034.73 365.996C1034.41 366.18 1034.09 366.358 1033.76 366.53C1033.44 366.698 1033.14 366.876 1032.87 367.064C1032.61 367.248 1032.39 367.46 1032.23 367.7C1032.06 367.94 1031.98 368.226 1031.98 368.558V368.732H1036.56V369.716H1030.74ZM1040.83 360.92C1041.77 360.92 1042.51 361.298 1043.07 362.054C1043.63 362.806 1043.91 363.92 1043.91 365.396C1043.91 366.864 1043.63 367.974 1043.08 368.726C1042.52 369.474 1041.77 369.848 1040.81 369.848C1039.87 369.848 1039.11 369.476 1038.56 368.732C1038 367.984 1037.72 366.878 1037.72 365.414C1037.72 364.426 1037.85 363.598 1038.11 362.93C1038.36 362.262 1038.72 361.76 1039.19 361.424C1039.65 361.088 1040.2 360.92 1040.83 360.92ZM1040.83 368.888C1041.45 368.888 1041.91 368.616 1042.23 368.072C1042.55 367.524 1042.71 366.634 1042.71 365.402C1042.71 364.146 1042.55 363.242 1042.22 362.69C1041.9 362.134 1041.44 361.856 1040.82 361.856C1040.21 361.856 1039.74 362.136 1039.4 362.696C1039.08 363.252 1038.91 364.154 1038.91 365.402C1038.91 366.63 1039.08 367.518 1039.4 368.066C1039.73 368.614 1040.21 368.888 1040.83 368.888ZM1045.24 369.716V369.038V368.684C1045.24 368.24 1045.32 367.856 1045.49 367.532C1045.65 367.208 1045.87 366.926 1046.15 366.686C1046.42 366.442 1046.72 366.224 1047.05 366.032C1047.37 365.84 1047.7 365.656 1048.02 365.48C1048.35 365.3 1048.65 365.114 1048.92 364.922C1049.2 364.726 1049.41 364.506 1049.58 364.262C1049.75 364.014 1049.83 363.722 1049.83 363.386C1049.83 362.946 1049.67 362.588 1049.36 362.312C1049.05 362.036 1048.64 361.898 1048.11 361.898C1047.54 361.898 1047.08 362.058 1046.74 362.378C1046.4 362.698 1046.2 363.124 1046.16 363.656H1045.05C1045.07 363.156 1045.19 362.7 1045.43 362.288C1045.66 361.872 1046.01 361.54 1046.46 361.292C1046.92 361.044 1047.48 360.92 1048.15 360.92C1048.73 360.92 1049.23 361.024 1049.66 361.232C1050.09 361.436 1050.42 361.724 1050.65 362.096C1050.89 362.464 1051.01 362.894 1051.01 363.386C1051.01 363.834 1050.92 364.218 1050.76 364.538C1050.6 364.858 1050.38 365.136 1050.11 365.372C1049.84 365.604 1049.54 365.812 1049.22 365.996C1048.9 366.18 1048.58 366.358 1048.26 366.53C1047.93 366.698 1047.64 366.876 1047.37 367.064C1047.1 367.248 1046.89 367.46 1046.72 367.7C1046.56 367.94 1046.48 368.226 1046.48 368.558V368.732H1051.05V369.716H1045.24ZM1056.25 361.04H1057.37V366.524H1058.81V367.502H1057.37V369.716H1056.29V367.502H1052.2V366.488L1056.25 361.04ZM1053.26 366.524H1056.26V362.498L1053.26 366.524Z" fill="#1F2632"/>
<path opacity="0.8" d="M1320.74 369.716V369.038V368.684C1320.74 368.24 1320.83 367.856 1320.99 367.532C1321.16 367.208 1321.38 366.926 1321.65 366.686C1321.93 366.442 1322.23 366.224 1322.55 366.032C1322.88 365.84 1323.2 365.656 1323.53 365.48C1323.86 365.3 1324.16 365.114 1324.43 364.922C1324.7 364.726 1324.92 364.506 1325.08 364.262C1325.25 364.014 1325.33 363.722 1325.33 363.386C1325.33 362.946 1325.18 362.588 1324.87 362.312C1324.56 362.036 1324.14 361.898 1323.61 361.898C1323.04 361.898 1322.59 362.058 1322.24 362.378C1321.9 362.698 1321.71 363.124 1321.66 363.656H1320.56C1320.57 363.156 1320.69 362.7 1320.93 362.288C1321.17 361.872 1321.51 361.54 1321.97 361.292C1322.42 361.044 1322.99 360.92 1323.65 360.92C1324.23 360.92 1324.74 361.024 1325.17 361.232C1325.59 361.436 1325.92 361.724 1326.16 362.096C1326.39 362.464 1326.51 362.894 1326.51 363.386C1326.51 363.834 1326.43 364.218 1326.26 364.538C1326.1 364.858 1325.88 365.136 1325.61 365.372C1325.34 365.604 1325.05 365.812 1324.73 365.996C1324.41 366.18 1324.09 366.358 1323.76 366.53C1323.44 366.698 1323.14 366.876 1322.87 367.064C1322.61 367.248 1322.39 367.46 1322.23 367.7C1322.06 367.94 1321.98 368.226 1321.98 368.558V368.732H1326.56V369.716H1320.74ZM1330.83 360.92C1331.77 360.92 1332.51 361.298 1333.07 362.054C1333.63 362.806 1333.91 363.92 1333.91 365.396C1333.91 366.864 1333.63 367.974 1333.08 368.726C1332.52 369.474 1331.77 369.848 1330.81 369.848C1329.87 369.848 1329.11 369.476 1328.56 368.732C1328 367.984 1327.72 366.878 1327.72 365.414C1327.72 364.426 1327.85 363.598 1328.11 362.93C1328.36 362.262 1328.72 361.76 1329.19 361.424C1329.65 361.088 1330.2 360.92 1330.83 360.92ZM1330.83 368.888C1331.45 368.888 1331.91 368.616 1332.23 368.072C1332.55 367.524 1332.71 366.634 1332.71 365.402C1332.71 364.146 1332.55 363.242 1332.22 362.69C1331.9 362.134 1331.44 361.856 1330.82 361.856C1330.21 361.856 1329.74 362.136 1329.4 362.696C1329.08 363.252 1328.91 364.154 1328.91 365.402C1328.91 366.63 1329.08 367.518 1329.4 368.066C1329.73 368.614 1330.21 368.888 1330.83 368.888ZM1335.24 369.716V369.038V368.684C1335.24 368.24 1335.32 367.856 1335.49 367.532C1335.65 367.208 1335.87 366.926 1336.15 366.686C1336.42 366.442 1336.72 366.224 1337.05 366.032C1337.37 365.84 1337.7 365.656 1338.02 365.48C1338.35 365.3 1338.65 365.114 1338.92 364.922C1339.2 364.726 1339.41 364.506 1339.58 364.262C1339.75 364.014 1339.83 363.722 1339.83 363.386C1339.83 362.946 1339.67 362.588 1339.36 362.312C1339.05 362.036 1338.64 361.898 1338.11 361.898C1337.54 361.898 1337.08 362.058 1336.74 362.378C1336.4 362.698 1336.2 363.124 1336.16 363.656H1335.05C1335.07 363.156 1335.19 362.7 1335.43 362.288C1335.66 361.872 1336.01 361.54 1336.46 361.292C1336.92 361.044 1337.48 360.92 1338.15 360.92C1338.73 360.92 1339.23 361.024 1339.66 361.232C1340.09 361.436 1340.42 361.724 1340.65 362.096C1340.89 362.464 1341.01 362.894 1341.01 363.386C1341.01 363.834 1340.92 364.218 1340.76 364.538C1340.6 364.858 1340.38 365.136 1340.11 365.372C1339.84 365.604 1339.54 365.812 1339.22 365.996C1338.9 366.18 1338.58 366.358 1338.26 366.53C1337.93 366.698 1337.64 366.876 1337.37 367.064C1337.1 367.248 1336.89 367.46 1336.72 367.7C1336.56 367.94 1336.48 368.226 1336.48 368.558V368.732H1341.05V369.716H1335.24ZM1343.05 361.04H1348.23L1348.2 362H1344L1343.77 364.802C1344.06 364.534 1344.38 364.344 1344.72 364.232C1345.06 364.116 1345.43 364.058 1345.83 364.058C1346.36 364.058 1346.84 364.166 1347.28 364.382C1347.72 364.594 1348.08 364.91 1348.35 365.33C1348.61 365.746 1348.75 366.262 1348.75 366.878C1348.75 367.478 1348.62 368 1348.36 368.444C1348.1 368.888 1347.73 369.234 1347.26 369.482C1346.79 369.726 1346.23 369.848 1345.6 369.848C1345.06 369.848 1344.57 369.754 1344.11 369.566C1343.65 369.378 1343.26 369.116 1342.93 368.78C1342.61 368.444 1342.37 368.058 1342.22 367.622L1343.18 367.22C1343.32 367.548 1343.5 367.84 1343.72 368.096C1343.94 368.352 1344.2 368.552 1344.5 368.696C1344.8 368.84 1345.14 368.912 1345.52 368.912C1346.14 368.912 1346.63 368.734 1347 368.378C1347.38 368.018 1347.57 367.53 1347.57 366.914C1347.57 366.53 1347.48 366.196 1347.3 365.912C1347.13 365.624 1346.89 365.4 1346.59 365.24C1346.29 365.08 1345.96 365 1345.6 365C1345.37 365 1345.15 365.022 1344.94 365.066C1344.74 365.106 1344.54 365.186 1344.34 365.306C1344.14 365.426 1343.93 365.608 1343.71 365.852C1343.68 365.864 1343.67 365.87 1343.65 365.87C1343.64 365.866 1343.62 365.858 1343.59 365.846L1342.66 365.552L1343.05 361.04Z" fill="#1F2632"/>
<line x1="323.5" y1="336.716" x2="323.5" y2="43.7165" stroke="#EEF1F9"/>
<line x1="31.5" y1="336.716" x2="31.5" y2="43.7165" stroke="#EEF1F9"/>
<line x1="32" y1="336.216" x2="1398" y2="336.216" stroke="#EEF1F9"/>
<line x1="613.5" y1="336.716" x2="613.5" y2="43.7165" stroke="#EEF1F9"/>
<line x1="903.5" y1="336.716" x2="903.5" y2="43.7165" stroke="#EEF1F9"/>
<line x1="1193.5" y1="336.716" x2="1193.5" y2="43.7165" stroke="#EEF1F9"/>
<g filter="url(#filter0_d_1450_4375)">
<path d="M31.5 252.216L123 238.716L307.5 226.216L497 209.716L678 177.716L864 153.716L1400 103.216" stroke="#1033BB" stroke-width="2" stroke-linecap="round"/>
</g>
<g filter="url(#filter1_d_1450_4375)">
<path d="M31 213.716L310 186.716L497 157.716L678 133.716L864.5 100.716L1397.5 37.7165" stroke="#1F86FF" stroke-width="2" stroke-linecap="round"/>
</g>
<g filter="url(#filter2_d_1450_4375)">
<circle cx="110" cy="199.716" r="7" fill="#1F86FF"/>
<circle cx="110" cy="199.716" r="5.5" stroke="white" stroke-width="3"/>
</g>
<g filter="url(#filter3_d_1450_4375)">
<circle cx="484" cy="157.716" r="7" fill="#1F86FF"/>
<circle cx="484" cy="157.716" r="5.5" stroke="white" stroke-width="3"/>
</g>
<g filter="url(#filter4_d_1450_4375)">
<circle cx="1045" cy="78.7165" r="7" fill="#1F86FF"/>
<circle cx="1045" cy="78.7165" r="5.5" stroke="white" stroke-width="3"/>
</g>
<g filter="url(#filter5_d_1450_4375)">
<circle cx="1334" cy="44.7165" r="7" fill="#1F86FF"/>
<circle cx="1334" cy="44.7165" r="5.5" stroke="white" stroke-width="3"/>
</g>
<g filter="url(#filter6_d_1450_4375)">
<circle cx="110" cy="238.716" r="7" fill="#1033BB"/>
<circle cx="110" cy="238.716" r="5.5" stroke="white" stroke-width="3"/>
</g>
<g filter="url(#filter7_d_1450_4375)">
<circle cx="484" cy="209.716" r="7" fill="#1033BB"/>
<circle cx="484" cy="209.716" r="5.5" stroke="white" stroke-width="3"/>
</g>
<g filter="url(#filter8_d_1450_4375)">
<circle cx="1045" cy="135.716" r="7" fill="#1033BB"/>
<circle cx="1045" cy="135.716" r="5.5" stroke="white" stroke-width="3"/>
</g>
<g filter="url(#filter9_d_1450_4375)">
<circle cx="1334" cy="109.716" r="7" fill="#1033BB"/>
<circle cx="1334" cy="109.716" r="5.5" stroke="white" stroke-width="3"/>
</g>
<g filter="url(#filter10_d_1450_4375)">
<circle cx="110" cy="278.716" r="7" fill="#20AB91"/>
<circle cx="110" cy="278.716" r="5.5" stroke="white" stroke-width="3"/>
</g>
<g filter="url(#filter11_d_1450_4375)">
<circle cx="484" cy="255.716" r="7" fill="#20AB91"/>
<circle cx="484" cy="255.716" r="5.5" stroke="white" stroke-width="3"/>
</g>
<g filter="url(#filter12_d_1450_4375)">
<circle cx="1045" cy="175.716" r="7" fill="#20AB91"/>
<circle cx="1045" cy="175.716" r="5.5" stroke="white" stroke-width="3"/>
</g>
<g filter="url(#filter13_d_1450_4375)">
<circle cx="1336" cy="144.716" r="7" fill="#20AB91"/>
<circle cx="1336" cy="144.716" r="5.5" stroke="white" stroke-width="3"/>
</g>
<path d="M389.281 432.594H395.749L395.742 433.882H390.807V437.011H395.196V438.285H390.807V442.716H389.281V432.594ZM400.103 442.856C399.427 442.856 398.834 442.712 398.325 442.422C397.821 442.128 397.429 441.704 397.149 441.148C396.874 440.593 396.736 439.921 396.736 439.132C396.736 438.372 396.867 437.707 397.128 437.137C397.394 436.568 397.779 436.127 398.283 435.814C398.787 435.497 399.396 435.338 400.11 435.338C400.792 435.338 401.382 435.488 401.881 435.786C402.381 436.08 402.768 436.512 403.043 437.081C403.319 437.646 403.456 438.33 403.456 439.132C403.456 439.865 403.326 440.511 403.064 441.071C402.808 441.631 402.43 442.07 401.93 442.387C401.436 442.7 400.827 442.856 400.103 442.856ZM400.11 441.701C400.521 441.701 400.864 441.594 401.139 441.379C401.419 441.16 401.629 440.854 401.769 440.462C401.909 440.066 401.979 439.608 401.979 439.09C401.979 438.61 401.916 438.173 401.79 437.781C401.669 437.385 401.471 437.07 401.195 436.836C400.92 436.603 400.558 436.486 400.11 436.486C399.69 436.486 399.34 436.594 399.06 436.808C398.78 437.018 398.568 437.319 398.423 437.711C398.283 438.099 398.213 438.558 398.213 439.09C398.213 439.562 398.276 439.996 398.402 440.392C398.528 440.789 398.731 441.106 399.011 441.344C399.291 441.582 399.658 441.701 400.11 441.701ZM405.066 442.716V435.478H406.501V436.962C406.622 436.608 406.79 436.311 407.005 436.073C407.224 435.831 407.478 435.649 407.768 435.527C408.057 435.401 408.363 435.338 408.685 435.338C408.783 435.338 408.876 435.345 408.965 435.359C409.053 435.369 409.123 435.387 409.175 435.415V436.857C409.114 436.829 409.035 436.811 408.937 436.801C408.843 436.792 408.762 436.785 408.692 436.78C408.374 436.757 408.085 436.773 407.824 436.829C407.562 436.885 407.336 436.979 407.145 437.109C406.958 437.24 406.813 437.41 406.711 437.62C406.613 437.83 406.564 438.078 406.564 438.362V442.716H405.066ZM411.573 439.447C411.573 439.881 411.643 440.271 411.783 440.616C411.927 440.957 412.144 441.228 412.434 441.428C412.723 441.624 413.082 441.722 413.512 441.722C413.941 441.722 414.312 441.624 414.625 441.428C414.942 441.232 415.15 440.941 415.248 440.553H416.634C416.55 441.048 416.351 441.468 416.039 441.813C415.731 442.159 415.357 442.42 414.919 442.597C414.48 442.77 414.02 442.856 413.54 442.856C412.854 442.856 412.249 442.709 411.727 442.415C411.204 442.117 410.796 441.692 410.502 441.141C410.212 440.591 410.068 439.935 410.068 439.174C410.068 438.423 410.201 437.76 410.467 437.186C410.733 436.608 411.118 436.155 411.622 435.828C412.126 435.502 412.732 435.338 413.442 435.338C414.142 435.338 414.73 435.488 415.206 435.786C415.686 436.085 416.05 436.505 416.298 437.046C416.545 437.583 416.669 438.218 416.669 438.95V439.447H411.573ZM411.573 438.474H415.241C415.241 438.096 415.175 437.753 415.045 437.445C414.914 437.133 414.713 436.888 414.443 436.71C414.177 436.528 413.841 436.437 413.435 436.437C413.019 436.437 412.674 436.538 412.399 436.738C412.123 436.939 411.916 437.196 411.776 437.508C411.64 437.821 411.573 438.143 411.573 438.474ZM421.288 435.338C421.83 435.338 422.31 435.446 422.73 435.66C423.155 435.87 423.498 436.164 423.759 436.542C424.021 436.92 424.179 437.361 424.235 437.865H422.94C422.898 437.627 422.807 437.406 422.667 437.2C422.532 436.995 422.348 436.832 422.114 436.71C421.886 436.584 421.613 436.521 421.295 436.521C420.717 436.521 420.245 436.734 419.881 437.158C419.517 437.583 419.335 438.234 419.335 439.111C419.335 439.914 419.503 440.553 419.839 441.029C420.18 441.505 420.675 441.743 421.323 441.743C421.636 441.743 421.907 441.678 422.135 441.547C422.369 441.417 422.553 441.249 422.688 441.043C422.824 440.838 422.91 440.626 422.947 440.406H424.221C424.17 440.892 424.011 441.319 423.745 441.687C423.484 442.056 423.141 442.343 422.716 442.548C422.296 442.754 421.82 442.856 421.288 442.856C420.63 442.856 420.047 442.714 419.538 442.429C419.03 442.14 418.631 441.718 418.341 441.162C418.057 440.602 417.914 439.923 417.914 439.125C417.914 438.374 418.047 437.714 418.313 437.144C418.579 436.575 418.964 436.132 419.468 435.814C419.977 435.497 420.584 435.338 421.288 435.338ZM427.836 442.856C427.369 442.856 426.954 442.772 426.59 442.604C426.231 442.436 425.948 442.194 425.743 441.876C425.538 441.559 425.435 441.176 425.435 440.728C425.435 439.926 425.72 439.326 426.289 438.929C426.858 438.533 427.766 438.323 429.012 438.299L430.202 438.264V437.739C430.202 437.324 430.078 436.997 429.831 436.759C429.584 436.521 429.203 436.405 428.69 436.409C428.303 436.409 427.957 436.498 427.654 436.675C427.355 436.853 427.159 437.144 427.066 437.55H425.764C425.792 437.07 425.93 436.666 426.177 436.339C426.429 436.008 426.774 435.758 427.213 435.59C427.652 435.422 428.167 435.338 428.76 435.338C429.418 435.338 429.959 435.429 430.384 435.611C430.809 435.789 431.124 436.05 431.329 436.395C431.539 436.741 431.644 437.161 431.644 437.655V442.716H430.377L430.258 441.386C429.987 441.942 429.644 442.327 429.229 442.541C428.818 442.751 428.354 442.856 427.836 442.856ZM428.305 441.813C428.534 441.813 428.76 441.774 428.984 441.694C429.208 441.61 429.411 441.498 429.593 441.358C429.775 441.214 429.92 441.053 430.027 440.875C430.139 440.698 430.197 440.516 430.202 440.329V439.132L429.222 439.153C428.723 439.158 428.298 439.209 427.948 439.307C427.603 439.405 427.337 439.557 427.15 439.762C426.968 439.968 426.877 440.241 426.877 440.581C426.877 440.969 427.012 441.272 427.283 441.491C427.554 441.706 427.894 441.813 428.305 441.813ZM436.293 442.856C435.789 442.856 435.315 442.777 434.872 442.618C434.433 442.46 434.065 442.21 433.766 441.869C433.472 441.529 433.288 441.092 433.213 440.56H434.55C434.611 440.836 434.725 441.064 434.893 441.246C435.066 441.424 435.271 441.557 435.509 441.645C435.752 441.729 436.011 441.771 436.286 441.771C436.743 441.771 437.112 441.69 437.392 441.526C437.677 441.358 437.819 441.102 437.819 440.756C437.819 440.509 437.742 440.311 437.588 440.161C437.439 440.012 437.201 439.902 436.874 439.832L435.432 439.489C434.835 439.349 434.356 439.128 433.997 438.824C433.638 438.516 433.456 438.087 433.451 437.536C433.451 437.112 433.556 436.734 433.766 436.402C433.981 436.071 434.298 435.812 434.718 435.625C435.138 435.434 435.661 435.338 436.286 435.338C437.103 435.338 437.758 435.52 438.253 435.884C438.748 436.248 439.004 436.776 439.023 437.466H437.728C437.681 437.135 437.53 436.876 437.273 436.689C437.021 436.498 436.687 436.402 436.272 436.402C435.843 436.402 435.49 436.489 435.215 436.661C434.94 436.829 434.802 437.088 434.802 437.438C434.802 437.676 434.902 437.865 435.103 438.005C435.304 438.141 435.605 438.253 436.006 438.341L437.378 438.684C437.733 438.778 438.024 438.901 438.253 439.055C438.482 439.205 438.661 439.37 438.792 439.552C438.923 439.734 439.014 439.923 439.065 440.119C439.121 440.315 439.149 440.5 439.149 440.672C439.149 441.13 439.032 441.522 438.799 441.848C438.57 442.17 438.241 442.42 437.812 442.597C437.387 442.77 436.881 442.856 436.293 442.856ZM444.588 436.556H442.964L442.971 440.875C442.971 441.113 442.994 441.288 443.041 441.4C443.092 441.508 443.176 441.578 443.293 441.61C443.414 441.638 443.578 441.652 443.783 441.652H444.63V442.625C444.537 442.663 444.397 442.695 444.21 442.723C444.028 442.751 443.792 442.765 443.503 442.765C442.966 442.765 442.549 442.693 442.25 442.548C441.956 442.404 441.751 442.196 441.634 441.925C441.522 441.65 441.466 441.319 441.466 440.931V436.556H440.29V435.478H441.508L441.879 433.35H442.964V435.471H444.588V436.556ZM449.513 442.716V435.478H450.969V436.521C451.174 436.204 451.454 435.929 451.809 435.695C452.164 435.457 452.621 435.338 453.181 435.338C453.442 435.338 453.706 435.383 453.972 435.471C454.243 435.56 454.49 435.693 454.714 435.87C454.943 436.043 455.122 436.258 455.253 436.514C455.482 436.169 455.787 435.887 456.17 435.667C456.553 435.448 456.982 435.338 457.458 435.338C457.715 435.338 457.981 435.38 458.256 435.464C458.531 435.544 458.786 435.681 459.019 435.877C459.257 436.069 459.448 436.335 459.593 436.675C459.742 437.016 459.817 437.448 459.817 437.97V442.716H458.312V438.131C458.312 437.735 458.244 437.424 458.109 437.2C457.978 436.976 457.806 436.82 457.591 436.731C457.381 436.638 457.157 436.591 456.919 436.591C456.704 436.591 456.48 436.633 456.247 436.717C456.014 436.801 455.815 436.941 455.652 437.137C455.489 437.333 455.407 437.599 455.407 437.935V442.716H453.909V437.809C453.909 437.543 453.837 437.319 453.692 437.137C453.552 436.955 453.375 436.82 453.16 436.731C452.95 436.638 452.74 436.591 452.53 436.591C452.297 436.591 452.063 436.638 451.83 436.731C451.597 436.825 451.401 436.972 451.242 437.172C451.088 437.368 451.011 437.623 451.011 437.935V442.716H449.513ZM464.676 442.856C463.999 442.856 463.406 442.712 462.898 442.422C462.394 442.128 462.002 441.704 461.722 441.148C461.446 440.593 461.309 439.921 461.309 439.132C461.309 438.372 461.439 437.707 461.701 437.137C461.967 436.568 462.352 436.127 462.856 435.814C463.36 435.497 463.969 435.338 464.683 435.338C465.364 435.338 465.954 435.488 466.454 435.786C466.953 436.08 467.34 436.512 467.616 437.081C467.891 437.646 468.029 438.33 468.029 439.132C468.029 439.865 467.898 440.511 467.637 441.071C467.38 441.631 467.002 442.07 466.503 442.387C466.008 442.7 465.399 442.856 464.676 442.856ZM464.683 441.701C465.093 441.701 465.436 441.594 465.712 441.379C465.992 441.16 466.202 440.854 466.342 440.462C466.482 440.066 466.552 439.608 466.552 439.09C466.552 438.61 466.489 438.173 466.363 437.781C466.241 437.385 466.043 437.07 465.768 436.836C465.492 436.603 465.131 436.486 464.683 436.486C464.263 436.486 463.913 436.594 463.633 436.808C463.353 437.018 463.14 437.319 462.996 437.711C462.856 438.099 462.786 438.558 462.786 439.09C462.786 439.562 462.849 439.996 462.975 440.392C463.101 440.789 463.304 441.106 463.584 441.344C463.864 441.582 464.23 441.701 464.683 441.701ZM472.277 442.856C471.325 442.856 470.576 442.532 470.03 441.883C469.484 441.23 469.211 440.29 469.211 439.062C469.211 438.311 469.321 437.658 469.54 437.102C469.759 436.542 470.086 436.108 470.52 435.8C470.959 435.492 471.5 435.338 472.144 435.338C472.471 435.338 472.76 435.378 473.012 435.457C473.269 435.537 473.493 435.639 473.684 435.765C473.88 435.891 474.041 436.027 474.167 436.171C474.298 436.316 474.398 436.451 474.468 436.577V432.314H475.973V442.716H474.853L474.685 441.232C474.634 441.391 474.554 441.564 474.447 441.75C474.34 441.937 474.193 442.114 474.006 442.282C473.824 442.45 473.591 442.588 473.306 442.695C473.021 442.803 472.678 442.856 472.277 442.856ZM472.564 441.729C473.236 441.729 473.721 441.519 474.02 441.099C474.319 440.675 474.468 439.979 474.468 439.013C474.463 438.467 474.396 438.005 474.265 437.627C474.134 437.249 473.931 436.965 473.656 436.773C473.385 436.577 473.028 436.479 472.585 436.479C472.03 436.479 471.577 436.68 471.227 437.081C470.877 437.478 470.702 438.122 470.702 439.013C470.702 439.891 470.861 440.563 471.178 441.029C471.5 441.496 471.962 441.729 472.564 441.729ZM479.139 439.447C479.139 439.881 479.209 440.271 479.349 440.616C479.494 440.957 479.711 441.228 480 441.428C480.29 441.624 480.649 441.722 481.078 441.722C481.508 441.722 481.879 441.624 482.191 441.428C482.509 441.232 482.716 440.941 482.814 440.553H484.2C484.116 441.048 483.918 441.468 483.605 441.813C483.297 442.159 482.924 442.42 482.485 442.597C482.047 442.77 481.587 442.856 481.106 442.856C480.42 442.856 479.816 442.709 479.293 442.415C478.771 442.117 478.362 441.692 478.068 441.141C477.779 440.591 477.634 439.935 477.634 439.174C477.634 438.423 477.767 437.76 478.033 437.186C478.299 436.608 478.684 436.155 479.188 435.828C479.692 435.502 480.299 435.338 481.008 435.338C481.708 435.338 482.296 435.488 482.772 435.786C483.253 436.085 483.617 436.505 483.864 437.046C484.112 437.583 484.235 438.218 484.235 438.95V439.447H479.139ZM479.139 438.474H482.807C482.807 438.096 482.742 437.753 482.611 437.445C482.481 437.133 482.28 436.888 482.009 436.71C481.743 436.528 481.407 436.437 481.001 436.437C480.586 436.437 480.241 436.538 479.965 436.738C479.69 436.939 479.482 437.196 479.342 437.508C479.207 437.821 479.139 438.143 479.139 438.474ZM487.868 442.814C487.438 442.814 487.093 442.758 486.832 442.646C486.575 442.534 486.379 442.385 486.244 442.198C486.108 442.007 486.017 441.792 485.971 441.554C485.929 441.312 485.908 441.062 485.908 440.805V432.314H487.385V440.651C487.385 440.987 487.45 441.244 487.581 441.421C487.716 441.599 487.921 441.699 488.197 441.722L488.575 441.736V442.688C488.458 442.726 488.337 442.756 488.211 442.779C488.089 442.803 487.975 442.814 487.868 442.814ZM494.871 442.716V434.792H492.953V433.861C493.551 433.861 494.02 433.815 494.36 433.721C494.706 433.623 494.953 433.481 495.102 433.294C495.256 433.103 495.343 432.87 495.361 432.594H496.404V442.716H494.871Z" fill="#1F2632"/>
<circle cx="373" cy="439.716" r="7" fill="#1F86FF"/>
<path d="M632.281 432.594H638.749L638.742 433.882H633.807V437.011H638.196V438.285H633.807V442.716H632.281V432.594ZM643.103 442.856C642.427 442.856 641.834 442.712 641.325 442.422C640.821 442.128 640.429 441.704 640.149 441.148C639.874 440.593 639.736 439.921 639.736 439.132C639.736 438.372 639.867 437.707 640.128 437.137C640.394 436.568 640.779 436.127 641.283 435.814C641.787 435.497 642.396 435.338 643.11 435.338C643.792 435.338 644.382 435.488 644.881 435.786C645.381 436.08 645.768 436.512 646.043 437.081C646.319 437.646 646.456 438.33 646.456 439.132C646.456 439.865 646.326 440.511 646.064 441.071C645.808 441.631 645.43 442.07 644.93 442.387C644.436 442.7 643.827 442.856 643.103 442.856ZM643.11 441.701C643.521 441.701 643.864 441.594 644.139 441.379C644.419 441.16 644.629 440.854 644.769 440.462C644.909 440.066 644.979 439.608 644.979 439.09C644.979 438.61 644.916 438.173 644.79 437.781C644.669 437.385 644.471 437.07 644.195 436.836C643.92 436.603 643.558 436.486 643.11 436.486C642.69 436.486 642.34 436.594 642.06 436.808C641.78 437.018 641.568 437.319 641.423 437.711C641.283 438.099 641.213 438.558 641.213 439.09C641.213 439.562 641.276 439.996 641.402 440.392C641.528 440.789 641.731 441.106 642.011 441.344C642.291 441.582 642.658 441.701 643.11 441.701ZM648.066 442.716V435.478H649.501V436.962C649.622 436.608 649.79 436.311 650.005 436.073C650.224 435.831 650.478 435.649 650.768 435.527C651.057 435.401 651.363 435.338 651.685 435.338C651.783 435.338 651.876 435.345 651.965 435.359C652.053 435.369 652.123 435.387 652.175 435.415V436.857C652.114 436.829 652.035 436.811 651.937 436.801C651.843 436.792 651.762 436.785 651.692 436.78C651.374 436.757 651.085 436.773 650.824 436.829C650.562 436.885 650.336 436.979 650.145 437.109C649.958 437.24 649.813 437.41 649.711 437.62C649.613 437.83 649.564 438.078 649.564 438.362V442.716H648.066ZM654.573 439.447C654.573 439.881 654.643 440.271 654.783 440.616C654.927 440.957 655.144 441.228 655.434 441.428C655.723 441.624 656.082 441.722 656.512 441.722C656.941 441.722 657.312 441.624 657.625 441.428C657.942 441.232 658.15 440.941 658.248 440.553H659.634C659.55 441.048 659.351 441.468 659.039 441.813C658.731 442.159 658.357 442.42 657.919 442.597C657.48 442.77 657.02 442.856 656.54 442.856C655.854 442.856 655.249 442.709 654.727 442.415C654.204 442.117 653.796 441.692 653.502 441.141C653.212 440.591 653.068 439.935 653.068 439.174C653.068 438.423 653.201 437.76 653.467 437.186C653.733 436.608 654.118 436.155 654.622 435.828C655.126 435.502 655.732 435.338 656.442 435.338C657.142 435.338 657.73 435.488 658.206 435.786C658.686 436.085 659.05 436.505 659.298 437.046C659.545 437.583 659.669 438.218 659.669 438.95V439.447H654.573ZM654.573 438.474H658.241C658.241 438.096 658.175 437.753 658.045 437.445C657.914 437.133 657.713 436.888 657.443 436.71C657.177 436.528 656.841 436.437 656.435 436.437C656.019 436.437 655.674 436.538 655.399 436.738C655.123 436.939 654.916 437.196 654.776 437.508C654.64 437.821 654.573 438.143 654.573 438.474ZM664.288 435.338C664.83 435.338 665.31 435.446 665.73 435.66C666.155 435.87 666.498 436.164 666.759 436.542C667.021 436.92 667.179 437.361 667.235 437.865H665.94C665.898 437.627 665.807 437.406 665.667 437.2C665.532 436.995 665.348 436.832 665.114 436.71C664.886 436.584 664.613 436.521 664.295 436.521C663.717 436.521 663.245 436.734 662.881 437.158C662.517 437.583 662.335 438.234 662.335 439.111C662.335 439.914 662.503 440.553 662.839 441.029C663.18 441.505 663.675 441.743 664.323 441.743C664.636 441.743 664.907 441.678 665.135 441.547C665.369 441.417 665.553 441.249 665.688 441.043C665.824 440.838 665.91 440.626 665.947 440.406H667.221C667.17 440.892 667.011 441.319 666.745 441.687C666.484 442.056 666.141 442.343 665.716 442.548C665.296 442.754 664.82 442.856 664.288 442.856C663.63 442.856 663.047 442.714 662.538 442.429C662.03 442.14 661.631 441.718 661.341 441.162C661.057 440.602 660.914 439.923 660.914 439.125C660.914 438.374 661.047 437.714 661.313 437.144C661.579 436.575 661.964 436.132 662.468 435.814C662.977 435.497 663.584 435.338 664.288 435.338ZM670.836 442.856C670.369 442.856 669.954 442.772 669.59 442.604C669.231 442.436 668.948 442.194 668.743 441.876C668.538 441.559 668.435 441.176 668.435 440.728C668.435 439.926 668.72 439.326 669.289 438.929C669.858 438.533 670.766 438.323 672.012 438.299L673.202 438.264V437.739C673.202 437.324 673.078 436.997 672.831 436.759C672.584 436.521 672.203 436.405 671.69 436.409C671.303 436.409 670.957 436.498 670.654 436.675C670.355 436.853 670.159 437.144 670.066 437.55H668.764C668.792 437.07 668.93 436.666 669.177 436.339C669.429 436.008 669.774 435.758 670.213 435.59C670.652 435.422 671.167 435.338 671.76 435.338C672.418 435.338 672.959 435.429 673.384 435.611C673.809 435.789 674.124 436.05 674.329 436.395C674.539 436.741 674.644 437.161 674.644 437.655V442.716H673.377L673.258 441.386C672.987 441.942 672.644 442.327 672.229 442.541C671.818 442.751 671.354 442.856 670.836 442.856ZM671.305 441.813C671.534 441.813 671.76 441.774 671.984 441.694C672.208 441.61 672.411 441.498 672.593 441.358C672.775 441.214 672.92 441.053 673.027 440.875C673.139 440.698 673.197 440.516 673.202 440.329V439.132L672.222 439.153C671.723 439.158 671.298 439.209 670.948 439.307C670.603 439.405 670.337 439.557 670.15 439.762C669.968 439.968 669.877 440.241 669.877 440.581C669.877 440.969 670.012 441.272 670.283 441.491C670.554 441.706 670.894 441.813 671.305 441.813ZM679.293 442.856C678.789 442.856 678.315 442.777 677.872 442.618C677.433 442.46 677.065 442.21 676.766 441.869C676.472 441.529 676.288 441.092 676.213 440.56H677.55C677.611 440.836 677.725 441.064 677.893 441.246C678.066 441.424 678.271 441.557 678.509 441.645C678.752 441.729 679.011 441.771 679.286 441.771C679.743 441.771 680.112 441.69 680.392 441.526C680.677 441.358 680.819 441.102 680.819 440.756C680.819 440.509 680.742 440.311 680.588 440.161C680.439 440.012 680.201 439.902 679.874 439.832L678.432 439.489C677.835 439.349 677.356 439.128 676.997 438.824C676.638 438.516 676.456 438.087 676.451 437.536C676.451 437.112 676.556 436.734 676.766 436.402C676.981 436.071 677.298 435.812 677.718 435.625C678.138 435.434 678.661 435.338 679.286 435.338C680.103 435.338 680.758 435.52 681.253 435.884C681.748 436.248 682.004 436.776 682.023 437.466H680.728C680.681 437.135 680.53 436.876 680.273 436.689C680.021 436.498 679.687 436.402 679.272 436.402C678.843 436.402 678.49 436.489 678.215 436.661C677.94 436.829 677.802 437.088 677.802 437.438C677.802 437.676 677.902 437.865 678.103 438.005C678.304 438.141 678.605 438.253 679.006 438.341L680.378 438.684C680.733 438.778 681.024 438.901 681.253 439.055C681.482 439.205 681.661 439.37 681.792 439.552C681.923 439.734 682.014 439.923 682.065 440.119C682.121 440.315 682.149 440.5 682.149 440.672C682.149 441.13 682.032 441.522 681.799 441.848C681.57 442.17 681.241 442.42 680.812 442.597C680.387 442.77 679.881 442.856 679.293 442.856ZM687.588 436.556H685.964L685.971 440.875C685.971 441.113 685.994 441.288 686.041 441.4C686.092 441.508 686.176 441.578 686.293 441.61C686.414 441.638 686.578 441.652 686.783 441.652H687.63V442.625C687.537 442.663 687.397 442.695 687.21 442.723C687.028 442.751 686.792 442.765 686.503 442.765C685.966 442.765 685.549 442.693 685.25 442.548C684.956 442.404 684.751 442.196 684.634 441.925C684.522 441.65 684.466 441.319 684.466 440.931V436.556H683.29V435.478H684.508L684.879 433.35H685.964V435.471H687.588V436.556ZM692.513 442.716V435.478H693.969V436.521C694.174 436.204 694.454 435.929 694.809 435.695C695.164 435.457 695.621 435.338 696.181 435.338C696.442 435.338 696.706 435.383 696.972 435.471C697.243 435.56 697.49 435.693 697.714 435.87C697.943 436.043 698.122 436.258 698.253 436.514C698.482 436.169 698.787 435.887 699.17 435.667C699.553 435.448 699.982 435.338 700.458 435.338C700.715 435.338 700.981 435.38 701.256 435.464C701.531 435.544 701.786 435.681 702.019 435.877C702.257 436.069 702.448 436.335 702.593 436.675C702.742 437.016 702.817 437.448 702.817 437.97V442.716H701.312V438.131C701.312 437.735 701.244 437.424 701.109 437.2C700.978 436.976 700.806 436.82 700.591 436.731C700.381 436.638 700.157 436.591 699.919 436.591C699.704 436.591 699.48 436.633 699.247 436.717C699.014 436.801 698.815 436.941 698.652 437.137C698.489 437.333 698.407 437.599 698.407 437.935V442.716H696.909V437.809C696.909 437.543 696.837 437.319 696.692 437.137C696.552 436.955 696.375 436.82 696.16 436.731C695.95 436.638 695.74 436.591 695.53 436.591C695.297 436.591 695.063 436.638 694.83 436.731C694.597 436.825 694.401 436.972 694.242 437.172C694.088 437.368 694.011 437.623 694.011 437.935V442.716H692.513ZM707.676 442.856C706.999 442.856 706.406 442.712 705.898 442.422C705.394 442.128 705.002 441.704 704.722 441.148C704.446 440.593 704.309 439.921 704.309 439.132C704.309 438.372 704.439 437.707 704.701 437.137C704.967 436.568 705.352 436.127 705.856 435.814C706.36 435.497 706.969 435.338 707.683 435.338C708.364 435.338 708.954 435.488 709.454 435.786C709.953 436.08 710.34 436.512 710.616 437.081C710.891 437.646 711.029 438.33 711.029 439.132C711.029 439.865 710.898 440.511 710.637 441.071C710.38 441.631 710.002 442.07 709.503 442.387C709.008 442.7 708.399 442.856 707.676 442.856ZM707.683 441.701C708.093 441.701 708.436 441.594 708.712 441.379C708.992 441.16 709.202 440.854 709.342 440.462C709.482 440.066 709.552 439.608 709.552 439.09C709.552 438.61 709.489 438.173 709.363 437.781C709.241 437.385 709.043 437.07 708.768 436.836C708.492 436.603 708.131 436.486 707.683 436.486C707.263 436.486 706.913 436.594 706.633 436.808C706.353 437.018 706.14 437.319 705.996 437.711C705.856 438.099 705.786 438.558 705.786 439.09C705.786 439.562 705.849 439.996 705.975 440.392C706.101 440.789 706.304 441.106 706.584 441.344C706.864 441.582 707.23 441.701 707.683 441.701ZM715.277 442.856C714.325 442.856 713.576 442.532 713.03 441.883C712.484 441.23 712.211 440.29 712.211 439.062C712.211 438.311 712.321 437.658 712.54 437.102C712.759 436.542 713.086 436.108 713.52 435.8C713.959 435.492 714.5 435.338 715.144 435.338C715.471 435.338 715.76 435.378 716.012 435.457C716.269 435.537 716.493 435.639 716.684 435.765C716.88 435.891 717.041 436.027 717.167 436.171C717.298 436.316 717.398 436.451 717.468 436.577V432.314H718.973V442.716H717.853L717.685 441.232C717.634 441.391 717.554 441.564 717.447 441.75C717.34 441.937 717.193 442.114 717.006 442.282C716.824 442.45 716.591 442.588 716.306 442.695C716.021 442.803 715.678 442.856 715.277 442.856ZM715.564 441.729C716.236 441.729 716.721 441.519 717.02 441.099C717.319 440.675 717.468 439.979 717.468 439.013C717.463 438.467 717.396 438.005 717.265 437.627C717.134 437.249 716.931 436.965 716.656 436.773C716.385 436.577 716.028 436.479 715.585 436.479C715.03 436.479 714.577 436.68 714.227 437.081C713.877 437.478 713.702 438.122 713.702 439.013C713.702 439.891 713.861 440.563 714.178 441.029C714.5 441.496 714.962 441.729 715.564 441.729ZM722.139 439.447C722.139 439.881 722.209 440.271 722.349 440.616C722.494 440.957 722.711 441.228 723 441.428C723.29 441.624 723.649 441.722 724.078 441.722C724.508 441.722 724.879 441.624 725.191 441.428C725.509 441.232 725.716 440.941 725.814 440.553H727.2C727.116 441.048 726.918 441.468 726.605 441.813C726.297 442.159 725.924 442.42 725.485 442.597C725.047 442.77 724.587 442.856 724.106 442.856C723.42 442.856 722.816 442.709 722.293 442.415C721.771 442.117 721.362 441.692 721.068 441.141C720.779 440.591 720.634 439.935 720.634 439.174C720.634 438.423 720.767 437.76 721.033 437.186C721.299 436.608 721.684 436.155 722.188 435.828C722.692 435.502 723.299 435.338 724.008 435.338C724.708 435.338 725.296 435.488 725.772 435.786C726.253 436.085 726.617 436.505 726.864 437.046C727.112 437.583 727.235 438.218 727.235 438.95V439.447H722.139ZM722.139 438.474H725.807C725.807 438.096 725.742 437.753 725.611 437.445C725.481 437.133 725.28 436.888 725.009 436.71C724.743 436.528 724.407 436.437 724.001 436.437C723.586 436.437 723.241 436.538 722.965 436.738C722.69 436.939 722.482 437.196 722.342 437.508C722.207 437.821 722.139 438.143 722.139 438.474ZM730.868 442.814C730.438 442.814 730.093 442.758 729.832 442.646C729.575 442.534 729.379 442.385 729.244 442.198C729.108 442.007 729.017 441.792 728.971 441.554C728.929 441.312 728.908 441.062 728.908 440.805V432.314H730.385V440.651C730.385 440.987 730.45 441.244 730.581 441.421C730.716 441.599 730.921 441.699 731.197 441.722L731.575 441.736V442.688C731.458 442.726 731.337 442.756 731.211 442.779C731.089 442.803 730.975 442.814 730.868 442.814ZM736.163 442.716V441.869V441.421C736.163 440.908 736.259 440.462 736.45 440.084C736.646 439.706 736.903 439.377 737.22 439.097C737.538 438.813 737.885 438.561 738.263 438.341C738.646 438.122 739.026 437.912 739.404 437.711C739.782 437.511 740.13 437.303 740.447 437.088C740.765 436.869 741.019 436.624 741.21 436.353C741.406 436.078 741.504 435.756 741.504 435.387C741.504 434.902 741.334 434.508 740.993 434.204C740.653 433.901 740.191 433.749 739.607 433.749C738.987 433.749 738.483 433.924 738.095 434.274C737.708 434.624 737.484 435.107 737.423 435.723H735.953C735.967 435.121 736.114 434.573 736.394 434.078C736.674 433.584 737.087 433.189 737.633 432.895C738.179 432.601 738.856 432.454 739.663 432.454C740.363 432.454 740.968 432.578 741.476 432.825C741.99 433.068 742.386 433.409 742.666 433.847C742.946 434.286 743.086 434.797 743.086 435.38C743.086 435.898 742.991 436.344 742.799 436.717C742.608 437.091 742.356 437.413 742.043 437.683C741.735 437.954 741.395 438.194 741.021 438.404C740.648 438.61 740.275 438.808 739.901 438.999C739.528 439.186 739.185 439.384 738.872 439.594C738.56 439.8 738.308 440.033 738.116 440.294C737.925 440.556 737.829 440.871 737.829 441.239V441.414H743.121V442.716H736.163Z" fill="#1F2632"/>
<circle cx="616" cy="439.716" r="7" fill="#1033BB"/>
<path d="M875.281 432.594H881.749L881.742 433.882H876.807V437.011H881.196V438.285H876.807V442.716H875.281V432.594ZM886.103 442.856C885.427 442.856 884.834 442.712 884.325 442.422C883.821 442.128 883.429 441.704 883.149 441.148C882.874 440.593 882.736 439.921 882.736 439.132C882.736 438.372 882.867 437.707 883.128 437.137C883.394 436.568 883.779 436.127 884.283 435.814C884.787 435.497 885.396 435.338 886.11 435.338C886.792 435.338 887.382 435.488 887.881 435.786C888.381 436.08 888.768 436.512 889.043 437.081C889.319 437.646 889.456 438.33 889.456 439.132C889.456 439.865 889.326 440.511 889.064 441.071C888.808 441.631 888.43 442.07 887.93 442.387C887.436 442.7 886.827 442.856 886.103 442.856ZM886.11 441.701C886.521 441.701 886.864 441.594 887.139 441.379C887.419 441.16 887.629 440.854 887.769 440.462C887.909 440.066 887.979 439.608 887.979 439.09C887.979 438.61 887.916 438.173 887.79 437.781C887.669 437.385 887.471 437.07 887.195 436.836C886.92 436.603 886.558 436.486 886.11 436.486C885.69 436.486 885.34 436.594 885.06 436.808C884.78 437.018 884.568 437.319 884.423 437.711C884.283 438.099 884.213 438.558 884.213 439.09C884.213 439.562 884.276 439.996 884.402 440.392C884.528 440.789 884.731 441.106 885.011 441.344C885.291 441.582 885.658 441.701 886.11 441.701ZM891.066 442.716V435.478H892.501V436.962C892.622 436.608 892.79 436.311 893.005 436.073C893.224 435.831 893.478 435.649 893.768 435.527C894.057 435.401 894.363 435.338 894.685 435.338C894.783 435.338 894.876 435.345 894.965 435.359C895.053 435.369 895.123 435.387 895.175 435.415V436.857C895.114 436.829 895.035 436.811 894.937 436.801C894.843 436.792 894.762 436.785 894.692 436.78C894.374 436.757 894.085 436.773 893.824 436.829C893.562 436.885 893.336 436.979 893.145 437.109C892.958 437.24 892.813 437.41 892.711 437.62C892.613 437.83 892.564 438.078 892.564 438.362V442.716H891.066ZM897.573 439.447C897.573 439.881 897.643 440.271 897.783 440.616C897.927 440.957 898.144 441.228 898.434 441.428C898.723 441.624 899.082 441.722 899.512 441.722C899.941 441.722 900.312 441.624 900.625 441.428C900.942 441.232 901.15 440.941 901.248 440.553H902.634C902.55 441.048 902.351 441.468 902.039 441.813C901.731 442.159 901.357 442.42 900.919 442.597C900.48 442.77 900.02 442.856 899.54 442.856C898.854 442.856 898.249 442.709 897.727 442.415C897.204 442.117 896.796 441.692 896.502 441.141C896.212 440.591 896.068 439.935 896.068 439.174C896.068 438.423 896.201 437.76 896.467 437.186C896.733 436.608 897.118 436.155 897.622 435.828C898.126 435.502 898.732 435.338 899.442 435.338C900.142 435.338 900.73 435.488 901.206 435.786C901.686 436.085 902.05 436.505 902.298 437.046C902.545 437.583 902.669 438.218 902.669 438.95V439.447H897.573ZM897.573 438.474H901.241C901.241 438.096 901.175 437.753 901.045 437.445C900.914 437.133 900.713 436.888 900.443 436.71C900.177 436.528 899.841 436.437 899.435 436.437C899.019 436.437 898.674 436.538 898.399 436.738C898.123 436.939 897.916 437.196 897.776 437.508C897.64 437.821 897.573 438.143 897.573 438.474ZM907.288 435.338C907.83 435.338 908.31 435.446 908.73 435.66C909.155 435.87 909.498 436.164 909.759 436.542C910.021 436.92 910.179 437.361 910.235 437.865H908.94C908.898 437.627 908.807 437.406 908.667 437.2C908.532 436.995 908.348 436.832 908.114 436.71C907.886 436.584 907.613 436.521 907.295 436.521C906.717 436.521 906.245 436.734 905.881 437.158C905.517 437.583 905.335 438.234 905.335 439.111C905.335 439.914 905.503 440.553 905.839 441.029C906.18 441.505 906.675 441.743 907.323 441.743C907.636 441.743 907.907 441.678 908.135 441.547C908.369 441.417 908.553 441.249 908.688 441.043C908.824 440.838 908.91 440.626 908.947 440.406H910.221C910.17 440.892 910.011 441.319 909.745 441.687C909.484 442.056 909.141 442.343 908.716 442.548C908.296 442.754 907.82 442.856 907.288 442.856C906.63 442.856 906.047 442.714 905.538 442.429C905.03 442.14 904.631 441.718 904.341 441.162C904.057 440.602 903.914 439.923 903.914 439.125C903.914 438.374 904.047 437.714 904.313 437.144C904.579 436.575 904.964 436.132 905.468 435.814C905.977 435.497 906.584 435.338 907.288 435.338ZM913.836 442.856C913.369 442.856 912.954 442.772 912.59 442.604C912.231 442.436 911.948 442.194 911.743 441.876C911.538 441.559 911.435 441.176 911.435 440.728C911.435 439.926 911.72 439.326 912.289 438.929C912.858 438.533 913.766 438.323 915.012 438.299L916.202 438.264V437.739C916.202 437.324 916.078 436.997 915.831 436.759C915.584 436.521 915.203 436.405 914.69 436.409C914.303 436.409 913.957 436.498 913.654 436.675C913.355 436.853 913.159 437.144 913.066 437.55H911.764C911.792 437.07 911.93 436.666 912.177 436.339C912.429 436.008 912.774 435.758 913.213 435.59C913.652 435.422 914.167 435.338 914.76 435.338C915.418 435.338 915.959 435.429 916.384 435.611C916.809 435.789 917.124 436.05 917.329 436.395C917.539 436.741 917.644 437.161 917.644 437.655V442.716H916.377L916.258 441.386C915.987 441.942 915.644 442.327 915.229 442.541C914.818 442.751 914.354 442.856 913.836 442.856ZM914.305 441.813C914.534 441.813 914.76 441.774 914.984 441.694C915.208 441.61 915.411 441.498 915.593 441.358C915.775 441.214 915.92 441.053 916.027 440.875C916.139 440.698 916.197 440.516 916.202 440.329V439.132L915.222 439.153C914.723 439.158 914.298 439.209 913.948 439.307C913.603 439.405 913.337 439.557 913.15 439.762C912.968 439.968 912.877 440.241 912.877 440.581C912.877 440.969 913.012 441.272 913.283 441.491C913.554 441.706 913.894 441.813 914.305 441.813ZM922.293 442.856C921.789 442.856 921.315 442.777 920.872 442.618C920.433 442.46 920.065 442.21 919.766 441.869C919.472 441.529 919.288 441.092 919.213 440.56H920.55C920.611 440.836 920.725 441.064 920.893 441.246C921.066 441.424 921.271 441.557 921.509 441.645C921.752 441.729 922.011 441.771 922.286 441.771C922.743 441.771 923.112 441.69 923.392 441.526C923.677 441.358 923.819 441.102 923.819 440.756C923.819 440.509 923.742 440.311 923.588 440.161C923.439 440.012 923.201 439.902 922.874 439.832L921.432 439.489C920.835 439.349 920.356 439.128 919.997 438.824C919.638 438.516 919.456 438.087 919.451 437.536C919.451 437.112 919.556 436.734 919.766 436.402C919.981 436.071 920.298 435.812 920.718 435.625C921.138 435.434 921.661 435.338 922.286 435.338C923.103 435.338 923.758 435.52 924.253 435.884C924.748 436.248 925.004 436.776 925.023 437.466H923.728C923.681 437.135 923.53 436.876 923.273 436.689C923.021 436.498 922.687 436.402 922.272 436.402C921.843 436.402 921.49 436.489 921.215 436.661C920.94 436.829 920.802 437.088 920.802 437.438C920.802 437.676 920.902 437.865 921.103 438.005C921.304 438.141 921.605 438.253 922.006 438.341L923.378 438.684C923.733 438.778 924.024 438.901 924.253 439.055C924.482 439.205 924.661 439.37 924.792 439.552C924.923 439.734 925.014 439.923 925.065 440.119C925.121 440.315 925.149 440.5 925.149 440.672C925.149 441.13 925.032 441.522 924.799 441.848C924.57 442.17 924.241 442.42 923.812 442.597C923.387 442.77 922.881 442.856 922.293 442.856ZM930.588 436.556H928.964L928.971 440.875C928.971 441.113 928.994 441.288 929.041 441.4C929.092 441.508 929.176 441.578 929.293 441.61C929.414 441.638 929.578 441.652 929.783 441.652H930.63V442.625C930.537 442.663 930.397 442.695 930.21 442.723C930.028 442.751 929.792 442.765 929.503 442.765C928.966 442.765 928.549 442.693 928.25 442.548C927.956 442.404 927.751 442.196 927.634 441.925C927.522 441.65 927.466 441.319 927.466 440.931V436.556H926.29V435.478H927.508L927.879 433.35H928.964V435.471H930.588V436.556ZM935.513 442.716V435.478H936.969V436.521C937.174 436.204 937.454 435.929 937.809 435.695C938.164 435.457 938.621 435.338 939.181 435.338C939.442 435.338 939.706 435.383 939.972 435.471C940.243 435.56 940.49 435.693 940.714 435.87C940.943 436.043 941.122 436.258 941.253 436.514C941.482 436.169 941.787 435.887 942.17 435.667C942.553 435.448 942.982 435.338 943.458 435.338C943.715 435.338 943.981 435.38 944.256 435.464C944.531 435.544 944.786 435.681 945.019 435.877C945.257 436.069 945.448 436.335 945.593 436.675C945.742 437.016 945.817 437.448 945.817 437.97V442.716H944.312V438.131C944.312 437.735 944.244 437.424 944.109 437.2C943.978 436.976 943.806 436.82 943.591 436.731C943.381 436.638 943.157 436.591 942.919 436.591C942.704 436.591 942.48 436.633 942.247 436.717C942.014 436.801 941.815 436.941 941.652 437.137C941.489 437.333 941.407 437.599 941.407 437.935V442.716H939.909V437.809C939.909 437.543 939.837 437.319 939.692 437.137C939.552 436.955 939.375 436.82 939.16 436.731C938.95 436.638 938.74 436.591 938.53 436.591C938.297 436.591 938.063 436.638 937.83 436.731C937.597 436.825 937.401 436.972 937.242 437.172C937.088 437.368 937.011 437.623 937.011 437.935V442.716H935.513ZM950.676 442.856C949.999 442.856 949.406 442.712 948.898 442.422C948.394 442.128 948.002 441.704 947.722 441.148C947.446 440.593 947.309 439.921 947.309 439.132C947.309 438.372 947.439 437.707 947.701 437.137C947.967 436.568 948.352 436.127 948.856 435.814C949.36 435.497 949.969 435.338 950.683 435.338C951.364 435.338 951.954 435.488 952.454 435.786C952.953 436.08 953.34 436.512 953.616 437.081C953.891 437.646 954.029 438.33 954.029 439.132C954.029 439.865 953.898 440.511 953.637 441.071C953.38 441.631 953.002 442.07 952.503 442.387C952.008 442.7 951.399 442.856 950.676 442.856ZM950.683 441.701C951.093 441.701 951.436 441.594 951.712 441.379C951.992 441.16 952.202 440.854 952.342 440.462C952.482 440.066 952.552 439.608 952.552 439.09C952.552 438.61 952.489 438.173 952.363 437.781C952.241 437.385 952.043 437.07 951.768 436.836C951.492 436.603 951.131 436.486 950.683 436.486C950.263 436.486 949.913 436.594 949.633 436.808C949.353 437.018 949.14 437.319 948.996 437.711C948.856 438.099 948.786 438.558 948.786 439.09C948.786 439.562 948.849 439.996 948.975 440.392C949.101 440.789 949.304 441.106 949.584 441.344C949.864 441.582 950.23 441.701 950.683 441.701ZM958.277 442.856C957.325 442.856 956.576 442.532 956.03 441.883C955.484 441.23 955.211 440.29 955.211 439.062C955.211 438.311 955.321 437.658 955.54 437.102C955.759 436.542 956.086 436.108 956.52 435.8C956.959 435.492 957.5 435.338 958.144 435.338C958.471 435.338 958.76 435.378 959.012 435.457C959.269 435.537 959.493 435.639 959.684 435.765C959.88 435.891 960.041 436.027 960.167 436.171C960.298 436.316 960.398 436.451 960.468 436.577V432.314H961.973V442.716H960.853L960.685 441.232C960.634 441.391 960.554 441.564 960.447 441.75C960.34 441.937 960.193 442.114 960.006 442.282C959.824 442.45 959.591 442.588 959.306 442.695C959.021 442.803 958.678 442.856 958.277 442.856ZM958.564 441.729C959.236 441.729 959.721 441.519 960.02 441.099C960.319 440.675 960.468 439.979 960.468 439.013C960.463 438.467 960.396 438.005 960.265 437.627C960.134 437.249 959.931 436.965 959.656 436.773C959.385 436.577 959.028 436.479 958.585 436.479C958.03 436.479 957.577 436.68 957.227 437.081C956.877 437.478 956.702 438.122 956.702 439.013C956.702 439.891 956.861 440.563 957.178 441.029C957.5 441.496 957.962 441.729 958.564 441.729ZM965.139 439.447C965.139 439.881 965.209 440.271 965.349 440.616C965.494 440.957 965.711 441.228 966 441.428C966.29 441.624 966.649 441.722 967.078 441.722C967.508 441.722 967.879 441.624 968.191 441.428C968.509 441.232 968.716 440.941 968.814 440.553H970.2C970.116 441.048 969.918 441.468 969.605 441.813C969.297 442.159 968.924 442.42 968.485 442.597C968.047 442.77 967.587 442.856 967.106 442.856C966.42 442.856 965.816 442.709 965.293 442.415C964.771 442.117 964.362 441.692 964.068 441.141C963.779 440.591 963.634 439.935 963.634 439.174C963.634 438.423 963.767 437.76 964.033 437.186C964.299 436.608 964.684 436.155 965.188 435.828C965.692 435.502 966.299 435.338 967.008 435.338C967.708 435.338 968.296 435.488 968.772 435.786C969.253 436.085 969.617 436.505 969.864 437.046C970.112 437.583 970.235 438.218 970.235 438.95V439.447H965.139ZM965.139 438.474H968.807C968.807 438.096 968.742 437.753 968.611 437.445C968.481 437.133 968.28 436.888 968.009 436.71C967.743 436.528 967.407 436.437 967.001 436.437C966.586 436.437 966.241 436.538 965.965 436.738C965.69 436.939 965.482 437.196 965.342 437.508C965.207 437.821 965.139 438.143 965.139 438.474ZM973.868 442.814C973.438 442.814 973.093 442.758 972.832 442.646C972.575 442.534 972.379 442.385 972.244 442.198C972.108 442.007 972.017 441.792 971.971 441.554C971.929 441.312 971.908 441.062 971.908 440.805V432.314H973.385V440.651C973.385 440.987 973.45 441.244 973.581 441.421C973.716 441.599 973.921 441.699 974.197 441.722L974.575 441.736V442.688C974.458 442.726 974.337 442.756 974.211 442.779C974.089 442.803 973.975 442.814 973.868 442.814ZM979.086 435.59C979.086 434.914 979.247 434.344 979.569 433.882C979.896 433.416 980.33 433.061 980.871 432.818C981.417 432.576 982.022 432.454 982.684 432.454C983.398 432.454 984.031 432.555 984.581 432.755C985.132 432.956 985.564 433.252 985.876 433.644C986.194 434.036 986.352 434.519 986.352 435.093C986.352 435.593 986.196 436.043 985.883 436.444C985.575 436.841 985.095 437.151 984.441 437.375C984.866 437.492 985.242 437.665 985.568 437.893C985.895 438.117 986.149 438.397 986.331 438.733C986.518 439.069 986.611 439.459 986.611 439.902C986.611 440.374 986.511 440.794 986.31 441.162C986.11 441.531 985.83 441.844 985.47 442.1C985.111 442.357 984.689 442.551 984.203 442.681C983.718 442.812 983.193 442.875 982.628 442.87C981.9 442.866 981.266 442.737 980.724 442.485C980.183 442.229 979.761 441.867 979.457 441.4C979.154 440.934 978.993 440.383 978.974 439.748H980.451C980.549 440.36 980.797 440.824 981.193 441.141C981.595 441.454 982.087 441.61 982.67 441.61C983.146 441.61 983.557 441.538 983.902 441.393C984.252 441.244 984.523 441.041 984.714 440.784C984.906 440.523 985.001 440.22 985.001 439.874C985.001 439.501 984.896 439.184 984.686 438.922C984.481 438.661 984.196 438.463 983.832 438.327C983.473 438.187 983.069 438.113 982.621 438.103L981.69 438.082V436.836L982.558 436.808C982.983 436.799 983.359 436.72 983.685 436.57C984.017 436.416 984.276 436.216 984.462 435.968C984.649 435.721 984.742 435.448 984.742 435.149C984.742 434.879 984.658 434.631 984.49 434.407C984.327 434.183 984.089 434.006 983.776 433.875C983.468 433.74 983.097 433.672 982.663 433.672C982.313 433.672 981.98 433.738 981.662 433.868C981.35 433.999 981.091 434.207 980.885 434.491C980.685 434.771 980.575 435.138 980.556 435.59H979.086Z" fill="#1F2632"/>
<circle cx="859" cy="440.716" r="7" fill="#20AB91"/>
<g filter="url(#filter14_d_1450_4375)">
<path d="M31 293.716L123 278.716L310 269.216L497 256.216L678 226.716L864 195.716L1402.5 138.216" stroke="#20AB91" stroke-width="2" stroke-linecap="round"/>
</g>
<g filter="url(#filter15_d_1450_4375)">
<circle cx="760" cy="118.716" r="7" fill="#1F86FF"/>
<circle cx="760" cy="118.716" r="5.5" stroke="white" stroke-width="3"/>
</g>
<g filter="url(#filter16_d_1450_4375)">
<circle cx="760" cy="167.716" r="7" fill="#1033BB"/>
<circle cx="760" cy="167.716" r="5.5" stroke="white" stroke-width="3"/>
</g>
<g filter="url(#filter17_d_1450_4375)">
<circle cx="760" cy="208.716" r="7" fill="#20AB91"/>
<circle cx="760" cy="208.716" r="5.5" stroke="white" stroke-width="3"/>
</g>
<defs>
<filter id="filter0_d_1450_4375" x="26.4998" y="102.216" width="1378.5" height="159" filterUnits="userSpaceOnUse" color-interpolation-filters="sRGB">
<feFlood flood-opacity="0" result="BackgroundImageFix"/>
<feColorMatrix in="SourceAlpha" type="matrix" values="0 0 0 0 0 0 0 0 0 0 0 0 0 0 0 0 0 0 127 0" result="hardAlpha"/>
<feOffset dy="4"/>
<feGaussianBlur stdDeviation="2"/>
<feColorMatrix type="matrix" values="0 0 0 0 0.85829 0 0 0 0 0.797929 0 0 0 0 0.797929 0 0 0 0.5 0"/>
<feBlend mode="normal" in2="BackgroundImageFix" result="effect1_dropShadow_1450_4375"/>
<feBlend mode="normal" in="SourceGraphic" in2="effect1_dropShadow_1450_4375" result="shape"/>
</filter>
<filter id="filter1_d_1450_4375" x="26" y="36.7164" width="1376.5" height="186" filterUnits="userSpaceOnUse" color-interpolation-filters="sRGB">
<feFlood flood-opacity="0" result="BackgroundImageFix"/>
<feColorMatrix in="SourceAlpha" type="matrix" values="0 0 0 0 0 0 0 0 0 0 0 0 0 0 0 0 0 0 127 0" result="hardAlpha"/>
<feOffset dy="4"/>
<feGaussianBlur stdDeviation="2"/>
<feColorMatrix type="matrix" values="0 0 0 0 0.85829 0 0 0 0 0.797929 0 0 0 0 0.797929 0 0 0 0.5 0"/>
<feBlend mode="normal" in2="BackgroundImageFix" result="effect1_dropShadow_1450_4375"/>
<feBlend mode="normal" in="SourceGraphic" in2="effect1_dropShadow_1450_4375" result="shape"/>
</filter>
<filter id="filter2_d_1450_4375" x="93" y="186.716" width="34" height="34" filterUnits="userSpaceOnUse" color-interpolation-filters="sRGB">
<feFlood flood-opacity="0" result="BackgroundImageFix"/>
<feColorMatrix in="SourceAlpha" type="matrix" values="0 0 0 0 0 0 0 0 0 0 0 0 0 0 0 0 0 0 127 0" result="hardAlpha"/>
<feOffset dy="4"/>
<feGaussianBlur stdDeviation="5"/>
<feColorMatrix type="matrix" values="0 0 0 0 0.787457 0 0 0 0 0.702548 0 0 0 0 0.702548 0 0 0 0.38 0"/>
<feBlend mode="normal" in2="BackgroundImageFix" result="effect1_dropShadow_1450_4375"/>
<feBlend mode="normal" in="SourceGraphic" in2="effect1_dropShadow_1450_4375" result="shape"/>
</filter>
<filter id="filter3_d_1450_4375" x="467" y="144.716" width="34" height="34" filterUnits="userSpaceOnUse" color-interpolation-filters="sRGB">
<feFlood flood-opacity="0" result="BackgroundImageFix"/>
<feColorMatrix in="SourceAlpha" type="matrix" values="0 0 0 0 0 0 0 0 0 0 0 0 0 0 0 0 0 0 127 0" result="hardAlpha"/>
<feOffset dy="4"/>
<feGaussianBlur stdDeviation="5"/>
<feColorMatrix type="matrix" values="0 0 0 0 0.787457 0 0 0 0 0.702548 0 0 0 0 0.702548 0 0 0 0.38 0"/>
<feBlend mode="normal" in2="BackgroundImageFix" result="effect1_dropShadow_1450_4375"/>
<feBlend mode="normal" in="SourceGraphic" in2="effect1_dropShadow_1450_4375" result="shape"/>
</filter>
<filter id="filter4_d_1450_4375" x="1028" y="65.7165" width="34" height="34" filterUnits="userSpaceOnUse" color-interpolation-filters="sRGB">
<feFlood flood-opacity="0" result="BackgroundImageFix"/>
<feColorMatrix in="SourceAlpha" type="matrix" values="0 0 0 0 0 0 0 0 0 0 0 0 0 0 0 0 0 0 127 0" result="hardAlpha"/>
<feOffset dy="4"/>
<feGaussianBlur stdDeviation="5"/>
<feColorMatrix type="matrix" values="0 0 0 0 0.787457 0 0 0 0 0.702548 0 0 0 0 0.702548 0 0 0 0.38 0"/>
<feBlend mode="normal" in2="BackgroundImageFix" result="effect1_dropShadow_1450_4375"/>
<feBlend mode="normal" in="SourceGraphic" in2="effect1_dropShadow_1450_4375" result="shape"/>
</filter>
<filter id="filter5_d_1450_4375" x="1317" y="31.7165" width="34" height="34" filterUnits="userSpaceOnUse" color-interpolation-filters="sRGB">
<feFlood flood-opacity="0" result="BackgroundImageFix"/>
<feColorMatrix in="SourceAlpha" type="matrix" values="0 0 0 0 0 0 0 0 0 0 0 0 0 0 0 0 0 0 127 0" result="hardAlpha"/>
<feOffset dy="4"/>
<feGaussianBlur stdDeviation="5"/>
<feColorMatrix type="matrix" values="0 0 0 0 0.787457 0 0 0 0 0.702548 0 0 0 0 0.702548 0 0 0 0.38 0"/>
<feBlend mode="normal" in2="BackgroundImageFix" result="effect1_dropShadow_1450_4375"/>
<feBlend mode="normal" in="SourceGraphic" in2="effect1_dropShadow_1450_4375" result="shape"/>
</filter>
<filter id="filter6_d_1450_4375" x="93" y="225.716" width="34" height="34" filterUnits="userSpaceOnUse" color-interpolation-filters="sRGB">
<feFlood flood-opacity="0" result="BackgroundImageFix"/>
<feColorMatrix in="SourceAlpha" type="matrix" values="0 0 0 0 0 0 0 0 0 0 0 0 0 0 0 0 0 0 127 0" result="hardAlpha"/>
<feOffset dy="4"/>
<feGaussianBlur stdDeviation="5"/>
<feColorMatrix type="matrix" values="0 0 0 0 0.787457 0 0 0 0 0.702548 0 0 0 0 0.702548 0 0 0 0.38 0"/>
<feBlend mode="normal" in2="BackgroundImageFix" result="effect1_dropShadow_1450_4375"/>
<feBlend mode="normal" in="SourceGraphic" in2="effect1_dropShadow_1450_4375" result="shape"/>
</filter>
<filter id="filter7_d_1450_4375" x="467" y="196.716" width="34" height="34" filterUnits="userSpaceOnUse" color-interpolation-filters="sRGB">
<feFlood flood-opacity="0" result="BackgroundImageFix"/>
<feColorMatrix in="SourceAlpha" type="matrix" values="0 0 0 0 0 0 0 0 0 0 0 0 0 0 0 0 0 0 127 0" result="hardAlpha"/>
<feOffset dy="4"/>
<feGaussianBlur stdDeviation="5"/>
<feColorMatrix type="matrix" values="0 0 0 0 0.787457 0 0 0 0 0.702548 0 0 0 0 0.702548 0 0 0 0.38 0"/>
<feBlend mode="normal" in2="BackgroundImageFix" result="effect1_dropShadow_1450_4375"/>
<feBlend mode="normal" in="SourceGraphic" in2="effect1_dropShadow_1450_4375" result="shape"/>
</filter>
<filter id="filter8_d_1450_4375" x="1028" y="122.716" width="34" height="34" filterUnits="userSpaceOnUse" color-interpolation-filters="sRGB">
<feFlood flood-opacity="0" result="BackgroundImageFix"/>
<feColorMatrix in="SourceAlpha" type="matrix" values="0 0 0 0 0 0 0 0 0 0 0 0 0 0 0 0 0 0 127 0" result="hardAlpha"/>
<feOffset dy="4"/>
<feGaussianBlur stdDeviation="5"/>
<feColorMatrix type="matrix" values="0 0 0 0 0.787457 0 0 0 0 0.702548 0 0 0 0 0.702548 0 0 0 0.38 0"/>
<feBlend mode="normal" in2="BackgroundImageFix" result="effect1_dropShadow_1450_4375"/>
<feBlend mode="normal" in="SourceGraphic" in2="effect1_dropShadow_1450_4375" result="shape"/>
</filter>
<filter id="filter9_d_1450_4375" x="1317" y="96.7165" width="34" height="34" filterUnits="userSpaceOnUse" color-interpolation-filters="sRGB">
<feFlood flood-opacity="0" result="BackgroundImageFix"/>
<feColorMatrix in="SourceAlpha" type="matrix" values="0 0 0 0 0 0 0 0 0 0 0 0 0 0 0 0 0 0 127 0" result="hardAlpha"/>
<feOffset dy="4"/>
<feGaussianBlur stdDeviation="5"/>
<feColorMatrix type="matrix" values="0 0 0 0 0.787457 0 0 0 0 0.702548 0 0 0 0 0.702548 0 0 0 0.38 0"/>
<feBlend mode="normal" in2="BackgroundImageFix" result="effect1_dropShadow_1450_4375"/>
<feBlend mode="normal" in="SourceGraphic" in2="effect1_dropShadow_1450_4375" result="shape"/>
</filter>
<filter id="filter10_d_1450_4375" x="93" y="265.716" width="34" height="34" filterUnits="userSpaceOnUse" color-interpolation-filters="sRGB">
<feFlood flood-opacity="0" result="BackgroundImageFix"/>
<feColorMatrix in="SourceAlpha" type="matrix" values="0 0 0 0 0 0 0 0 0 0 0 0 0 0 0 0 0 0 127 0" result="hardAlpha"/>
<feOffset dy="4"/>
<feGaussianBlur stdDeviation="5"/>
<feColorMatrix type="matrix" values="0 0 0 0 0.787457 0 0 0 0 0.702548 0 0 0 0 0.702548 0 0 0 0.38 0"/>
<feBlend mode="normal" in2="BackgroundImageFix" result="effect1_dropShadow_1450_4375"/>
<feBlend mode="normal" in="SourceGraphic" in2="effect1_dropShadow_1450_4375" result="shape"/>
</filter>
<filter id="filter11_d_1450_4375" x="467" y="242.716" width="34" height="34" filterUnits="userSpaceOnUse" color-interpolation-filters="sRGB">
<feFlood flood-opacity="0" result="BackgroundImageFix"/>
<feColorMatrix in="SourceAlpha" type="matrix" values="0 0 0 0 0 0 0 0 0 0 0 0 0 0 0 0 0 0 127 0" result="hardAlpha"/>
<feOffset dy="4"/>
<feGaussianBlur stdDeviation="5"/>
<feColorMatrix type="matrix" values="0 0 0 0 0.787457 0 0 0 0 0.702548 0 0 0 0 0.702548 0 0 0 0.38 0"/>
<feBlend mode="normal" in2="BackgroundImageFix" result="effect1_dropShadow_1450_4375"/>
<feBlend mode="normal" in="SourceGraphic" in2="effect1_dropShadow_1450_4375" result="shape"/>
</filter>
<filter id="filter12_d_1450_4375" x="1028" y="162.716" width="34" height="34" filterUnits="userSpaceOnUse" color-interpolation-filters="sRGB">
<feFlood flood-opacity="0" result="BackgroundImageFix"/>
<feColorMatrix in="SourceAlpha" type="matrix" values="0 0 0 0 0 0 0 0 0 0 0 0 0 0 0 0 0 0 127 0" result="hardAlpha"/>
<feOffset dy="4"/>
<feGaussianBlur stdDeviation="5"/>
<feColorMatrix type="matrix" values="0 0 0 0 0.787457 0 0 0 0 0.702548 0 0 0 0 0.702548 0 0 0 0.38 0"/>
<feBlend mode="normal" in2="BackgroundImageFix" result="effect1_dropShadow_1450_4375"/>
<feBlend mode="normal" in="SourceGraphic" in2="effect1_dropShadow_1450_4375" result="shape"/>
</filter>
<filter id="filter13_d_1450_4375" x="1319" y="131.716" width="34" height="34" filterUnits="userSpaceOnUse" color-interpolation-filters="sRGB">
<feFlood flood-opacity="0" result="BackgroundImageFix"/>
<feColorMatrix in="SourceAlpha" type="matrix" values="0 0 0 0 0 0 0 0 0 0 0 0 0 0 0 0 0 0 127 0" result="hardAlpha"/>
<feOffset dy="4"/>
<feGaussianBlur stdDeviation="5"/>
<feColorMatrix type="matrix" values="0 0 0 0 0.787457 0 0 0 0 0.702548 0 0 0 0 0.702548 0 0 0 0.38 0"/>
<feBlend mode="normal" in2="BackgroundImageFix" result="effect1_dropShadow_1450_4375"/>
<feBlend mode="normal" in="SourceGraphic" in2="effect1_dropShadow_1450_4375" result="shape"/>
</filter>
<filter id="filter14_d_1450_4375" x="25.9998" y="137.216" width="1381.5" height="165.5" filterUnits="userSpaceOnUse" color-interpolation-filters="sRGB">
<feFlood flood-opacity="0" result="BackgroundImageFix"/>
<feColorMatrix in="SourceAlpha" type="matrix" values="0 0 0 0 0 0 0 0 0 0 0 0 0 0 0 0 0 0 127 0" result="hardAlpha"/>
<feOffset dy="4"/>
<feGaussianBlur stdDeviation="2"/>
<feColorMatrix type="matrix" values="0 0 0 0 0.85829 0 0 0 0 0.797929 0 0 0 0 0.797929 0 0 0 0.5 0"/>
<feBlend mode="normal" in2="BackgroundImageFix" result="effect1_dropShadow_1450_4375"/>
<feBlend mode="normal" in="SourceGraphic" in2="effect1_dropShadow_1450_4375" result="shape"/>
</filter>
<filter id="filter15_d_1450_4375" x="743" y="105.716" width="34" height="34" filterUnits="userSpaceOnUse" color-interpolation-filters="sRGB">
<feFlood flood-opacity="0" result="BackgroundImageFix"/>
<feColorMatrix in="SourceAlpha" type="matrix" values="0 0 0 0 0 0 0 0 0 0 0 0 0 0 0 0 0 0 127 0" result="hardAlpha"/>
<feOffset dy="4"/>
<feGaussianBlur stdDeviation="5"/>
<feColorMatrix type="matrix" values="0 0 0 0 0.787457 0 0 0 0 0.702548 0 0 0 0 0.702548 0 0 0 0.38 0"/>
<feBlend mode="normal" in2="BackgroundImageFix" result="effect1_dropShadow_1450_4375"/>
<feBlend mode="normal" in="SourceGraphic" in2="effect1_dropShadow_1450_4375" result="shape"/>
</filter>
<filter id="filter16_d_1450_4375" x="743" y="154.716" width="34" height="34" filterUnits="userSpaceOnUse" color-interpolation-filters="sRGB">
<feFlood flood-opacity="0" result="BackgroundImageFix"/>
<feColorMatrix in="SourceAlpha" type="matrix" values="0 0 0 0 0 0 0 0 0 0 0 0 0 0 0 0 0 0 127 0" result="hardAlpha"/>
<feOffset dy="4"/>
<feGaussianBlur stdDeviation="5"/>
<feColorMatrix type="matrix" values="0 0 0 0 0.787457 0 0 0 0 0.702548 0 0 0 0 0.702548 0 0 0 0.38 0"/>
<feBlend mode="normal" in2="BackgroundImageFix" result="effect1_dropShadow_1450_4375"/>
<feBlend mode="normal" in="SourceGraphic" in2="effect1_dropShadow_1450_4375" result="shape"/>
</filter>
<filter id="filter17_d_1450_4375" x="743" y="195.716" width="34" height="34" filterUnits="userSpaceOnUse" color-interpolation-filters="sRGB">
<feFlood flood-opacity="0" result="BackgroundImageFix"/>
<feColorMatrix in="SourceAlpha" type="matrix" values="0 0 0 0 0 0 0 0 0 0 0 0 0 0 0 0 0 0 127 0" result="hardAlpha"/>
<feOffset dy="4"/>
<feGaussianBlur stdDeviation="5"/>
<feColorMatrix type="matrix" values="0 0 0 0 0.787457 0 0 0 0 0.702548 0 0 0 0 0.702548 0 0 0 0.38 0"/>
<feBlend mode="normal" in2="BackgroundImageFix" result="effect1_dropShadow_1450_4375"/>
<feBlend mode="normal" in="SourceGraphic" in2="effect1_dropShadow_1450_4375" result="shape"/>
</filter>
</defs>
</svg>
