<svg width="14" height="14" viewBox="0 0 14 14" fill="none" xmlns="http://www.w3.org/2000/svg">
<path fill-rule="evenodd" clip-rule="evenodd" d="M10.7917 2.33314C10.5596 2.33314 10.337 2.42535 10.1729 2.58948L9.71037 3.052L10.9481 4.28971L11.4106 3.82719C11.5747 3.66306 11.6669 3.44045 11.6669 3.20833C11.6669 2.97622 11.5747 2.75361 11.4106 2.58948C11.2465 2.42535 11.0239 2.33314 10.7917 2.33314ZM12.2356 4.65214C12.6185 4.26922 12.8336 3.74987 12.8336 3.20833C12.8336 2.6668 12.6185 2.14744 12.2356 1.76452C11.8526 1.3816 11.3333 1.16647 10.7917 1.16647C10.2502 1.16647 9.73086 1.3816 9.34794 1.76452L8.47324 2.63922C8.47334 2.63911 8.47314 2.63932 8.47324 2.63922C8.47314 2.63932 8.47273 2.63972 8.47263 2.63982L1.3376 9.77485C1.22821 9.88425 1.16675 10.0326 1.16675 10.1873V12.271C1.16675 12.5932 1.42792 12.8543 1.75008 12.8543H3.79175C3.94646 12.8543 4.09483 12.7929 4.20423 12.6835L12.2356 4.65214ZM10.1231 5.11466L8.88541 3.87696L2.33341 10.429V11.6877H3.55012L10.1231 5.11466Z" fill="#6B7280"/>
</svg>
