<svg width="20" height="20" viewBox="0 0 20 20" fill="none" xmlns="http://www.w3.org/2000/svg">
<path d="M19.2188 4.53125H11.7188C11.2873 4.53125 10.9375 4.18148 10.9375 3.75C10.9375 3.31852 11.2873 2.96875 11.7188 2.96875H19.2188C19.6502 2.96875 20 3.31852 20 3.75C20 4.18148 19.6502 4.53125 19.2188 4.53125Z" fill="#666A7A"/>
<path d="M0.78125 4.53125H3.25938C3.58188 5.44055 4.45027 6.09375 5.46875 6.09375H7.03125C8.32359 6.09375 9.375 5.04234 9.375 3.75C9.375 2.45766 8.32359 1.40625 7.03125 1.40625H5.46875C4.45027 1.40625 3.58191 2.05945 3.25938 2.96875H0.78125C0.349766 2.96875 0 3.31852 0 3.75C0 4.18148 0.349766 4.53125 0.78125 4.53125ZM5.46875 2.96875H7.03125C7.46203 2.96875 7.8125 3.31922 7.8125 3.75C7.8125 4.18078 7.46203 4.53125 7.03125 4.53125H5.46875C5.03797 4.53125 4.6875 4.18078 4.6875 3.75C4.6875 3.31922 5.03797 2.96875 5.46875 2.96875Z" fill="#666A7A"/>
<path d="M0.78125 10.7812H11.0719C11.3944 11.6905 12.2628 12.3438 13.2812 12.3438H14.8438C15.8622 12.3438 16.7306 11.6905 17.0531 10.7812H19.2188C19.6502 10.7812 20 10.4315 20 10C20 9.56852 19.6502 9.21875 19.2188 9.21875H17.0531C16.7306 8.30945 15.8622 7.65625 14.8438 7.65625H13.2812C12.2628 7.65625 11.3944 8.30945 11.0719 9.21875H0.78125C0.349766 9.21875 0 9.56852 0 10C0 10.4315 0.349766 10.7812 0.78125 10.7812ZM13.2812 9.21875H14.8438C15.2745 9.21875 15.625 9.56922 15.625 10C15.625 10.4308 15.2745 10.7812 14.8438 10.7812H13.2812C12.8505 10.7812 12.5 10.4308 12.5 10C12.5 9.56922 12.8505 9.21875 13.2812 9.21875Z" fill="#666A7A"/>
<path d="M19.2188 15.4688H9.24063C8.91813 14.5595 8.04973 13.9062 7.03125 13.9062H5.46875C4.45027 13.9062 3.58191 14.5595 3.25938 15.4688H0.78125C0.349766 15.4688 0 15.8185 0 16.25C0 16.6815 0.349766 17.0312 0.78125 17.0312H3.25938C3.58188 17.9405 4.45027 18.5938 5.46875 18.5938H7.03125C8.04973 18.5938 8.91809 17.9405 9.24063 17.0312H19.2188C19.6502 17.0312 20 16.6815 20 16.25C20 15.8185 19.6502 15.4688 19.2188 15.4688ZM7.03125 17.0312H5.46875C5.03797 17.0312 4.6875 16.6808 4.6875 16.25C4.6875 15.8192 5.03797 15.4688 5.46875 15.4688H7.03125C7.46203 15.4688 7.8125 15.8192 7.8125 16.25C7.8125 16.6808 7.46203 17.0312 7.03125 17.0312Z" fill="#666A7A"/>
</svg>
