<svg width="16" height="16" viewBox="0 0 16 16" fill="none" xmlns="http://www.w3.org/2000/svg">
<path fill-rule="evenodd" clip-rule="evenodd" d="M12.6668 2.11434C12.5067 2.11434 12.3482 2.14587 12.2003 2.20713C12.0524 2.26838 11.918 2.35817 11.8048 2.47136L2.93002 11.3462L2.28358 13.7165L4.65388 13.07L13.5287 4.19522C13.6419 4.08203 13.7317 3.94765 13.7929 3.79976C13.8542 3.65188 13.8857 3.49337 13.8857 3.33329C13.8857 3.17321 13.8542 3.01471 13.7929 2.86682C13.7317 2.71893 13.6419 2.58455 13.5287 2.47136C13.4155 2.35817 13.2811 2.26838 13.1332 2.20713C12.9853 2.14587 12.8268 2.11434 12.6668 2.11434ZM11.69 0.975287C11.9997 0.847022 12.3316 0.781006 12.6668 0.781006C13.0019 0.781006 13.3338 0.847023 13.6435 0.975287C13.9531 1.10355 14.2345 1.29155 14.4715 1.52855C14.7085 1.76555 14.8965 2.04692 15.0248 2.35657C15.153 2.66623 15.219 2.99812 15.219 3.33329C15.219 3.66846 15.153 4.00035 15.0248 4.31001C14.8965 4.61967 14.7085 4.90103 14.4715 5.13803L5.4715 14.138C5.38946 14.2201 5.28744 14.2793 5.17551 14.3098L1.50884 15.3098C1.27803 15.3727 1.03119 15.3072 0.862026 15.138C0.692859 14.9689 0.627307 14.722 0.690254 14.4912L1.69025 10.8245C1.72078 10.7126 1.77999 10.6106 1.86203 10.5286L10.862 1.52855C11.099 1.29155 11.3804 1.10355 11.69 0.975287Z" fill="#6E7890"/>
</svg>
