<svg width="16" height="16" viewBox="0 0 16 16" fill="none" xmlns="http://www.w3.org/2000/svg">
<path fill-rule="evenodd" clip-rule="evenodd" d="M12.6665 2.11434C12.5064 2.11434 12.3479 2.14587 12.2 2.20713C12.0522 2.26838 11.9178 2.35817 11.8046 2.47136L2.92978 11.3462L2.28333 13.7165L4.65364 13.07L13.5284 4.19522C13.6416 4.08203 13.7314 3.94765 13.7927 3.79976C13.8539 3.65188 13.8855 3.49337 13.8855 3.33329C13.8855 3.17321 13.8539 3.01471 13.7927 2.86682C13.7314 2.71893 13.6416 2.58455 13.5284 2.47136C13.4153 2.35817 13.2809 2.26838 13.133 2.20713C12.9851 2.14587 12.8266 2.11434 12.6665 2.11434ZM11.6898 0.975287C11.9995 0.847022 12.3313 0.781006 12.6665 0.781006C13.0017 0.781006 13.3336 0.847023 13.6432 0.975287C13.9529 1.10355 14.2343 1.29155 14.4713 1.52855C14.7083 1.76555 14.8963 2.04692 15.0245 2.35657C15.1528 2.66623 15.2188 2.99812 15.2188 3.33329C15.2188 3.66846 15.1528 4.00035 15.0245 4.31001C14.8963 4.61967 14.7083 4.90103 14.4713 5.13803L5.47126 14.138C5.38922 14.2201 5.28719 14.2793 5.17526 14.3098L1.5086 15.3098C1.27779 15.3727 1.03095 15.3072 0.861782 15.138C0.692615 14.9689 0.627062 14.722 0.69001 14.4912L1.69001 10.8245C1.72054 10.7126 1.77974 10.6106 1.86178 10.5286L10.8618 1.52855C11.0988 1.29155 11.3801 1.10355 11.6898 0.975287Z" fill="#6E7890"/>
</svg>
