<svg width="16" height="16" viewBox="0 0 16 16" fill="none" xmlns="http://www.w3.org/2000/svg">
<path fill-rule="evenodd" clip-rule="evenodd" d="M3.3335 2.66671C3.15668 2.66671 2.98712 2.73695 2.86209 2.86197C2.73707 2.98699 2.66683 3.15656 2.66683 3.33337V12.3906L4.19543 10.862C4.32045 10.7369 4.49002 10.6667 4.66683 10.6667H12.6668C12.8436 10.6667 13.0132 10.5965 13.1382 10.4714C13.2633 10.3464 13.3335 10.1769 13.3335 10V3.33337C13.3335 3.15656 13.2633 2.98699 13.1382 2.86197C13.0132 2.73695 12.8436 2.66671 12.6668 2.66671H3.3335ZM1.91928 1.91916C2.29436 1.54409 2.80306 1.33337 3.3335 1.33337H12.6668C13.1973 1.33337 13.706 1.54409 14.081 1.91916C14.4561 2.29423 14.6668 2.80294 14.6668 3.33337V10C14.6668 10.5305 14.4561 11.0392 14.081 11.4143C13.706 11.7893 13.1973 12 12.6668 12H4.94297L2.47157 14.4714C2.2809 14.6621 1.99416 14.7191 1.74504 14.616C1.49592 14.5128 1.3335 14.2697 1.3335 14V3.33337C1.3335 2.80294 1.54421 2.29423 1.91928 1.91916Z" fill="#6E7890"/>
</svg>
