<svg width="10" height="10" viewBox="0 0 10 10" fill="none" xmlns="http://www.w3.org/2000/svg">
<path d="M7.97016 1.96999C8.11103 1.83588 8.29848 1.76173 8.49298 1.76321C8.68747 1.76468 8.87378 1.84165 9.0126 1.97787C9.15143 2.1141 9.2319 2.29893 9.23704 2.49336C9.24218 2.68779 9.17159 2.87661 9.04016 3.01999L5.05016 8.00999C4.98155 8.08389 4.89874 8.14319 4.80669 8.18435C4.71464 8.22552 4.61523 8.2477 4.51441 8.24956C4.41359 8.25143 4.31343 8.23295 4.21991 8.19522C4.1264 8.15749 4.04146 8.10129 3.97016 8.02999L1.32416 5.38399C1.25047 5.31532 1.19137 5.23252 1.15038 5.14052C1.10938 5.04853 1.08734 4.94921 1.08557 4.84851C1.08379 4.74781 1.10231 4.64778 1.14004 4.55439C1.17776 4.461 1.2339 4.37617 1.30512 4.30495C1.37634 4.23373 1.46117 4.17758 1.55456 4.13986C1.64795 4.10214 1.74798 4.08362 1.84868 4.08539C1.94938 4.08717 2.0487 4.10921 2.1407 4.15021C2.2327 4.1912 2.3155 4.2503 2.38416 4.32399L4.47816 6.41699L7.95116 1.99199C7.95741 1.98429 7.96409 1.97694 7.97116 1.96999H7.97016Z" fill="white"/>
</svg>
