<svg width="40" height="40" viewBox="0 0 40 40" fill="none" xmlns="http://www.w3.org/2000/svg">
<path d="M27.4874 29.4886C27.2757 29.2261 27.0112 28.9635 26.7731 28.7009C25.7414 27.5982 25.1859 26.1278 25.2653 24.6312C25.2917 23.7123 25.5298 22.8196 25.9795 22.0319C26.4821 21.1392 27.3551 20.5878 27.9371 19.7476C29.8153 17.0695 29.154 13.3674 26.4292 11.5032C25.424 10.7943 24.2071 10.4267 22.9902 10.4529C21.8263 10.4267 20.6888 10.7418 19.6835 11.3456C18.8634 11.8708 18.3873 12.7635 17.5672 13.2886C16.5884 13.8925 15.4509 14.1813 14.287 14.155C13.3611 14.1288 12.4352 13.8925 11.6151 13.4461C10.7686 12.9735 10.1602 12.2121 9.36655 11.6607C6.66827 9.79653 2.93829 10.4792 1.06007 13.1573C-0.818143 15.8354 -0.130343 19.5376 2.56794 21.4017C4.81651 22.9509 7.85869 22.7671 9.92208 20.9816C11.1654 19.9051 12.1442 18.9599 13.8637 18.7499C14.816 18.6186 15.7948 18.7499 16.7207 19.0649C18.0434 19.5638 19.1544 20.9554 19.8687 22.1107C20.7946 23.581 20.9533 25.4189 20.3449 27.0468C19.8951 28.2283 18.9428 28.8322 18.2286 29.8037C18.2021 29.8562 18.1492 29.9087 18.1227 29.9612C16.1387 32.6131 16.6942 36.394 19.3925 38.3632C22.0644 40.3324 25.8737 39.781 27.8577 37.1029C29.5508 34.7661 29.4185 31.5891 27.4874 29.4886Z" fill="url(#paint0_linear_858_135)"/>
<path d="M34.1802 12.3435C37.3944 12.3435 40 9.75731 40 6.56712C40 3.37693 37.3944 0.790771 34.1802 0.790771C30.966 0.790771 28.3604 3.37693 28.3604 6.56712C28.3604 9.75731 30.966 12.3435 34.1802 12.3435Z" fill="#20D0B2"/>
<defs>
<linearGradient id="paint0_linear_858_135" x1="29" y1="10" x2="-1.68328" y2="15.4723" gradientUnits="userSpaceOnUse">
<stop stop-color="#20D0B2"/>
<stop offset="1" stop-color="#1DCDE7"/>
</linearGradient>
</defs>
</svg>
