<svg width="15" height="15" viewBox="0 0 15 15" fill="none" xmlns="http://www.w3.org/2000/svg">
<path fill-rule="evenodd" clip-rule="evenodd" d="M3.125 2.5C2.95924 2.5 2.80027 2.56585 2.68306 2.68306C2.56585 2.80027 2.5 2.95924 2.5 3.125V11.875C2.5 12.0408 2.56585 12.1997 2.68306 12.3169C2.80027 12.4342 2.95924 12.5 3.125 12.5H11.875C12.0408 12.5 12.1997 12.4342 12.3169 12.3169C12.4342 12.1997 12.5 12.0408 12.5 11.875V5.25888L9.74112 2.5H3.125ZM1.79917 1.79917C2.15081 1.44754 2.62772 1.25 3.125 1.25H10C10.1658 1.25 10.3247 1.31585 10.4419 1.43306L13.5669 4.55806C13.6842 4.67527 13.75 4.83424 13.75 5V11.875C13.75 12.3723 13.5525 12.8492 13.2008 13.2008C12.8492 13.5525 12.3723 13.75 11.875 13.75H3.125C2.62772 13.75 2.15081 13.5525 1.79917 13.2008C1.44754 12.8492 1.25 12.3723 1.25 11.875V3.125C1.25 2.62772 1.44754 2.15081 1.79917 1.79917Z" fill="white"/>
<path fill-rule="evenodd" clip-rule="evenodd" d="M3.75 8.125C3.75 7.77982 4.02982 7.5 4.375 7.5H10.625C10.9702 7.5 11.25 7.77982 11.25 8.125V13.125C11.25 13.4702 10.9702 13.75 10.625 13.75C10.2798 13.75 10 13.4702 10 13.125V8.75H5V13.125C5 13.4702 4.72018 13.75 4.375 13.75C4.02982 13.75 3.75 13.4702 3.75 13.125V8.125Z" fill="white"/>
<path fill-rule="evenodd" clip-rule="evenodd" d="M4.375 1.25C4.72018 1.25 5 1.52982 5 1.875V4.375H9.375C9.72018 4.375 10 4.65482 10 5C10 5.34518 9.72018 5.625 9.375 5.625H4.375C4.02982 5.625 3.75 5.34518 3.75 5V1.875C3.75 1.52982 4.02982 1.25 4.375 1.25Z" fill="white"/>
</svg>
